<?xml version="1.0" standalone="no"?>
<!DOCTYPE svg PUBLIC "-//W3C//DTD SVG 1.1//EN" "http://www.w3.org/Graphics/SVG/1.1/DTD/svg11.dtd" >
<svg>
<metadata>
Created by FontForge 20090914 at Fri Dec 12 05:59:31 2014
 By www-data
Copyright (c) 1992 Adobe Systems Incorporated.  All Rights Reserved.Myriad is a trademark of Adobe Systems Incorporated.
</metadata>
<defs>
<font id="MyriadSetPro-Bold" horiz-adv-x="596" >
  <font-face 
    font-family="Myriad Set Pro"
    font-weight="700"
    font-stretch="normal"
    units-per-em="1000"
    panose-1="2 0 4 0 0 0 0 0 0 0"
    ascent="800"
    descent="-200"
    x-height="506"
    cap-height="700"
    bbox="-70 -243.001 868 740"
    underline-thickness="50"
    underline-position="-75"
    unicode-range="U+001D-U+FE48"
  />
<missing-glyph 
d="M48 0v700h500v-700h-500zM72 24h452v652h-452v-652z" />
    <glyph glyph-name="uniFB00" unicode="ff" 
d="M48 0v700h500v-700h-500zM72 24h452v652h-452v-652z" />
    <glyph glyph-name="uniFB01" unicode="fi" horiz-adv-x="563" 
d="M495 -20h-157.999v405h-124v-405h-158v405h-66v121h66v5c0 34 5.5 65 16.5 93s27.333 52 49 72s48 35.667 79 47s65.833 17 104.5 17c60.667 0 112.667 -14.667 156 -44l-39 -123c-44.667 26.667 -84.334 40 -119.001 40c-60 0 -90 -35.333 -90 -106v-1h283v-526z" />
    <glyph glyph-name="uniFB02" unicode="fl" horiz-adv-x="563" 
d="M495 -20h-158v634c-3.33301 2 -17 3 -41 3c-56 0 -84 -36 -84 -108v-3h104v-121h-103v-405h-158v405h-66v121h66v1c0 34 5.66699 65.333 17 94s28 53.167 50 73.5s49.167 36.333 81.5 48s68.833 17.5 109.5 17.5c66 0 126.667 -14.667 182 -44v-716z" />
    <glyph glyph-name="uniFB03" unicode="ffi" 
d="M48 0v700h500v-700h-500zM72 24h452v652h-452v-652z" />
    <glyph glyph-name="uniFB04" unicode="ffl" 
d="M48 0v700h500v-700h-500zM72 24h452v652h-452v-652z" />
    <glyph glyph-name=".notdef" 
d="M48 0v700h500v-700h-500zM72 24h452v652h-452v-652z" />
    <glyph glyph-name=".null" horiz-adv-x="0" 
 />
    <glyph glyph-name=".null" horiz-adv-x="0" 
 />
    <glyph glyph-name="space" unicode=" " horiz-adv-x="236" 
 />
    <glyph glyph-name="exclam" unicode="!" horiz-adv-x="266" 
d="M204 694l-18 -512h-132l-18 512h168zM214 60c0 -25.333 -8.66699 -46.833 -26 -64.5s-40.333 -26.5 -69 -26.5s-51.167 9.16699 -67.5 27.5s-24.5 39.5 -24.5 63.5c0 24.667 8.5 46.167 25.5 64.5s39.5 27.5 67.5 27.5c28.667 0 51.5 -9.16699 68.5 -27.5
s25.5 -39.833 25.5 -64.5z" />
    <glyph glyph-name="quotedbl" unicode="&#x22;" 
d="M48 0v700h500v-700h-500zM72 24h452v652h-452v-652z" />
    <glyph glyph-name="numbersign" unicode="#" 
d="M48 0v700h500v-700h-500zM72 24h452v652h-452v-652z" />
    <glyph glyph-name="dollar" unicode="$" 
d="M48 0v700h500v-700h-500zM72 24h452v652h-452v-652z" />
    <glyph glyph-name="percent" unicode="%" 
d="M48 0v700h500v-700h-500zM72 24h452v652h-452v-652z" />
    <glyph glyph-name="ampersand" unicode="&#x26;" 
d="M48 0v700h500v-700h-500zM72 24h452v652h-452v-652z" />
    <glyph glyph-name="quotesingle" unicode="'" 
d="M48 0v700h500v-700h-500zM72 24h452v652h-452v-652z" />
    <glyph glyph-name="parenleft" unicode="(" 
d="M48 0v700h500v-700h-500zM72 24h452v652h-452v-652z" />
    <glyph glyph-name="parenright" unicode=")" 
d="M48 0v700h500v-700h-500zM72 24h452v652h-452v-652z" />
    <glyph glyph-name="asterisk" unicode="*" 
d="M48 0v700h500v-700h-500zM72 24h452v652h-452v-652z" />
    <glyph glyph-name="plus" unicode="+" 
d="M48 0v700h500v-700h-500zM72 24h452v652h-452v-652z" />
    <glyph glyph-name="comma" unicode="," horiz-adv-x="256" 
d="M225 164c-38 -126 -78.999 -225.333 -122.999 -298l-124 -11c35.333 98.667 60.666 196.667 75.999 294z" />
    <glyph glyph-name="hyphen" unicode="-" horiz-adv-x="334" 
d="M304 210h-299v116h299v-116z" />
    <glyph glyph-name="period" unicode="." horiz-adv-x="248" 
d="M214 61c0 -24.667 -8.49902 -46.1689 -25.499 -64.502s-40.167 -27.5 -69.5 -27.5c-28.667 0 -51.334 9.33301 -68.001 28s-25 40 -25 64c0 24.667 8.66699 46.334 26 65.001s40 28 68 28c28.667 0 51.5 -9.16699 68.5 -27.5s25.5 -40.166 25.5 -65.499z" />
    <glyph glyph-name="slash" unicode="/" horiz-adv-x="368" 
d="M370 705l-269 -765h-130l269 765h130z" />
    <glyph glyph-name="zero" unicode="0" horiz-adv-x="544" 
d="M509 330c0 -95.333 -15.667 -173.334 -47 -234.001c-42.667 -84.667 -111.667 -127 -207 -127c-90 0 -156.333 42.667 -199 128c-31.333 60.667 -47 136 -47 226c0 92 16.667 169.333 50 232c44.667 84 113 126 205 126c91.333 0 158 -41.667 200 -125
c30 -59.333 45 -134.666 45 -225.999zM350 326.999c0 153.333 -30.334 230 -91.001 230c-32 0 -56.667 -28.333 -74 -85c-12 -42 -18 -92 -18 -150s6 -107.333 18 -148c16.667 -54 41.334 -81 74.001 -81c60.667 0 91 78 91 234z" />
    <glyph glyph-name="one" unicode="1" horiz-adv-x="544" 
d="M362 -20h-154v551h30l-140 -73l-31 124l172 88h123v-690z" />
    <glyph glyph-name="two" unicode="2" horiz-adv-x="544" 
d="M491 -20l-473.001 0.000976562v93l79 76c83.333 80.667 139.333 140 168 178c35.333 46.667 53 89.667 53 129c0.666992 64 -30.333 96 -93 96c-38.667 0 -87.667 -23 -147 -69l-49 118c64.667 53.333 137 80 217 80c74.667 0 133.334 -22.333 176.001 -67
c36.667 -38.667 55 -87.334 55 -146.001c0 -58 -20 -116 -60 -174c-30.667 -46 -80.667 -101.333 -150 -166l-47 -43v25h271v-130z" />
    <glyph glyph-name="three" unicode="3" horiz-adv-x="544" 
d="M481 185c0 -61.333 -23.334 -112.001 -70.001 -152.001c-49.333 -42.667 -115.333 -64 -198 -64c-77.333 0 -144.333 19 -201 57l38 123c59.333 -35.333 112.333 -53 159 -53c37.333 0 66 10 86 30c16.667 16 24.667 37 24 63c0 32.667 -13 57.667 -39 75
c-22.667 16 -52.667 24 -90 24h-76v119h75c28.667 0 53.334 6.33301 74.001 19c23.333 14.667 35 34.667 35 60c0 21.333 -6.66699 38 -20 50s-33.666 18 -60.999 18c-40 0 -87.667 -19 -143 -57l-39 122c58.667 41.333 126.667 62 204 62c69.333 0 124.333 -18.333 165 -55
c36 -32.667 54 -73.334 54 -122.001c0 -81.333 -39.333 -136.666 -118 -165.999v27c33.333 -6 65.166 -25.667 95.499 -59s45.5 -73.666 45.5 -120.999z" />
    <glyph glyph-name="four" unicode="4" horiz-adv-x="544" 
d="M522 150h-85v-170h-152v170h-292v96l280 424h164v-397h85v-123zM287 540l37 -12c-5.33301 -12 -21.333 -41.667 -48 -89l-111 -166h120v171c0 32 0.666992 64 2 96z" />
    <glyph glyph-name="five" unicode="5" horiz-adv-x="544" 
d="M482 213c0 -68.667 -25.6689 -126.5 -77.002 -173.5s-117.666 -70.5 -198.999 -70.5c-72.667 0 -137 16.667 -193 50l36 125c56.667 -32.667 108 -49 154 -49c32.667 0 60.667 9.66699 84 29s35 46 35 80c-0.666992 75.333 -53.334 113 -158.001 113
c-27.333 0 -65.666 -3.33301 -114.999 -10l48 363h368v-130h-247l-14 -100c-5.33301 -0.666992 0.666992 -1 18 -1c62.667 0 117.334 -14.333 164.001 -43c64 -41.333 96 -102.333 96 -183z" />
    <glyph glyph-name="six" unicode="6" horiz-adv-x="544" 
d="M513 220c0 -67.333 -21.667 -125 -65 -173c-46 -52 -106.333 -78 -181 -78c-81.333 0 -145 28 -191 84s-69 127.333 -69 214c0 127.333 39 229.333 117 306c59.333 58 137.333 92.333 234 103c26 2.66699 56 4 90 4v-128c-34.667 1.33301 -62.667 0.333008 -84 -3
c-56.667 -7.33301 -102.334 -29.333 -137.001 -66c-31.333 -32.667 -50 -66 -56 -100h-38c36 44.667 89.667 67 161 67c64.667 0 117.334 -21.333 158.001 -64s61 -98 61 -166zM353 214c0 37.333 -8.66797 66 -26.001 86s-39.666 30 -66.999 30
c-40 0 -69.667 -19.333 -89 -58c-4.66699 -9.33301 -6.66699 -20 -6 -32c0.666992 -44.667 10 -81 28 -109c18 -26.667 43 -40 75 -40c24.667 0 44.667 11 60 33c16.667 22.667 25 52.667 25 90z" />
    <glyph glyph-name="seven" unicode="7" horiz-adv-x="544" 
d="M498 577l-281 -597h-166l272 560h-295v130h470v-93z" />
    <glyph glyph-name="eight" unicode="8" horiz-adv-x="544" 
d="M509 181c0 -66 -25.999 -119.002 -77.999 -159.002c-47.333 -35.333 -105.333 -53 -174 -53c-65.333 0 -121 16.333 -167 49c-53.333 36.667 -80 86 -80 148c0 86 41 147.333 123 184v-20c-66.667 32 -100 83.667 -100 155c0 60 24.333 108.333 73 145
c43.333 34 96.666 51 159.999 51c58.667 0 109 -15 151 -45c45.333 -34 68 -79.667 68 -137c0 -73.333 -33.667 -126.666 -101 -159.999v20c83.333 -33.333 125 -92.666 125 -177.999zM334.001 487.998c0 24.667 -6.66797 43.668 -20.001 57.001s-30.666 20 -51.999 20
s-39 -6.33301 -53 -19s-21 -31 -21 -55c0 -42.667 28 -72.334 84 -89.001c41.333 14 62 42.667 62 86zM350 170.999c0 53.333 -33.666 90.001 -100.999 110.001c-20 -6.66699 -37.667 -18 -53 -34c-16.667 -19.333 -25 -42 -25 -68c0 -28.667 8.66699 -51.334 26 -68.001
s38.666 -25 63.999 -25s46.5 7.5 63.5 22.5s25.5 35.833 25.5 62.5z" />
    <glyph glyph-name="nine" unicode="9" horiz-adv-x="544" 
d="M509 385c0 -111.333 -27.335 -203 -82.002 -275c-59.333 -80 -144.666 -125.333 -255.999 -136c-34 -3.33301 -68.667 -4.33301 -104 -3v130c32.667 -4 62.667 -4.33301 90 -1c45.333 4.66699 84 20.667 116 48c40 35.333 64 76.333 72 123h40
c-35.333 -40.667 -87.333 -61 -156 -61c-64.667 0 -117 20.833 -157 62.5s-60 94.167 -60 157.5c0 67.333 22.333 125 67 173c48.667 52 110 78 184 78c78.667 0 140.334 -29.333 185.001 -88c40.667 -52.667 61 -122 61 -208zM348.998 404c0 46 -7.66699 83 -23 111
c-16 30 -39.333 45 -70 45c-25.333 0 -45.666 -11.333 -60.999 -34c-17.333 -23.333 -26 -53.333 -26 -90c0 -33.333 8.16699 -59.5 24.5 -78.5s37.166 -28.5 62.499 -28.5c40.667 0 70 15.667 88 47c3.33301 6 5 15.333 5 28z" />
    <glyph glyph-name="colon" unicode=":" 
d="M48 0v700h500v-700h-500zM72 24h452v652h-452v-652z" />
    <glyph glyph-name="semicolon" unicode=";" 
d="M48 0v700h500v-700h-500zM72 24h452v652h-452v-652z" />
    <glyph glyph-name="less" unicode="&#x3c;" 
d="M48 0v700h500v-700h-500zM72 24h452v652h-452v-652z" />
    <glyph glyph-name="equal" unicode="=" horiz-adv-x="621" 
d="M581 313h-566v110h566v-110zM581 114h-566v110h566v-110z" />
    <glyph glyph-name="greater" unicode="&#x3e;" 
d="M48 0v700h500v-700h-500zM72 24h452v652h-452v-652z" />
    <glyph glyph-name="question" unicode="?" horiz-adv-x="437" 
d="M396 536c0 -34 -9.33301 -67.668 -28 -101.001c-11.333 -20 -31.666 -47.333 -60.999 -82c-35.333 -41.333 -52 -84.333 -50 -129l2 -44h-144l-5 43c-4.66699 62.667 16.666 123.334 63.999 182.001c41.333 49.333 62 88 62 116c0 37.333 -20.667 56.333 -62 57
c-32 0 -69 -15.667 -111 -47l-42 122c52 35.333 110.667 53 176 53c64.667 0 115 -17.667 151 -53c32 -31.333 48 -70.333 48 -117zM276 59.999c0 -25.333 -8.50098 -46.833 -25.501 -64.5s-39.833 -26.5 -68.5 -26.5c-28 0 -50.5 9.16699 -67.5 27.5s-25.5 39.5 -25.5 63.5
c0 25.333 8.66699 47 26 65s40 27 68 27c28.667 0 51.334 -9 68.001 -27s25 -39.667 25 -65z" />
    <glyph glyph-name="at" unicode="@" horiz-adv-x="763" 
d="M724 399c0 -77.333 -19.1689 -140.17 -57.502 -188.503s-87.5 -72.5 -147.5 -72.5c-68 0 -102 28 -102 84h38c-34 -56 -84.667 -84 -152 -84c-39.333 0 -71.166 13.667 -95.499 41s-36.5 62.333 -36.5 105c0 68 23 127 69 177c50.667 53.333 114 80 190 80
c48 0 93.333 -10.667 136 -32l-35 -196c-3.33301 -19.333 -5 -35.666 -5 -48.999c0 -21.333 3 -32 9 -32c16 -0.666992 31.667 11 47 35c20.667 32 31 74 31 126c0 67.333 -19 121 -57 161c-37.333 40.667 -89.333 61 -156 61c-73.333 0 -135.333 -27 -186 -81
c-54.667 -58 -82 -133.667 -82 -227c0 -77.333 22.333 -138.666 67 -183.999c40.667 -42 94.334 -63 161.001 -63c52 0 106.333 15.333 163 46l30 -88c-65.333 -33.333 -134.333 -50 -207 -50c-92 0 -168.667 30.333 -230 91c-64 62.667 -96 143.334 -96 242.001
c0 110 34.667 203.667 104 281c74 82 169 123 285 123c94 0 170 -29 228 -87s87 -131 87 -219zM431.998 440.996c2 -0.666992 -2.99902 -1.00098 -14.999 -1.00098c-31.333 0 -59.166 -14.5 -83.499 -43.5s-36.5 -64.167 -36.5 -105.5c0 -34 11.667 -51 35 -51
c15.333 0 31.666 10.833 48.999 32.5s28.666 46.834 33.999 75.501z" />
    <glyph glyph-name="A" unicode="A" horiz-adv-x="647" 
d="M623 -20h-166l-63 198h-180l-60 -198h-164l230 714h172zM362 301l-49 151c-6 18.667 -16 56 -30 112h39c-4 -18 -13.667 -55 -29 -111l-48 -152h117z" />
    <glyph glyph-name="B" unicode="B" horiz-adv-x="580" 
d="M540 193c0 -60 -22.334 -109.666 -67.001 -148.999c-52 -46.667 -138.333 -70 -259 -70c-53.333 0 -109 3.66699 -167 11v695c60 12.667 124.333 19 193 19c88.667 0 156.834 -16.833 204.501 -50.5s71.5 -79.834 71.5 -138.501c0 -35.333 -11.167 -68 -33.5 -98
s-48.5 -50.333 -78.5 -61v25c31.333 -8 61 -27 89 -57c31.333 -35.333 47 -77.333 47 -126zM356.999 499.001c0 52.667 -35.666 79 -106.999 79c-28 0 -43.333 -0.333008 -46 -1v-163h42c35.333 0 62.666 7.66699 81.999 23s29 36 29 62zM377 196.001
c0 34 -12.668 59.333 -38.001 76c-23.333 15.333 -55.333 23 -96 23h-39v-199c-1.33301 0 12.334 0 41.001 0c40 0 71 7.33301 93 22c26 16.667 39 42.667 39 78z" />
    <glyph glyph-name="C" unicode="C" horiz-adv-x="599" 
d="M570 664l-35.0029 -127.001c-53.333 24.667 -101.666 37 -144.999 37c-64.667 0 -115.667 -19.333 -153 -58c-42 -42.667 -63 -103 -63 -181c0 -75.333 18.833 -133.166 56.5 -173.499s89.834 -60.5 156.501 -60.5c48 0 98.333 12.333 151 37l29 -128
c-54 -26 -120.333 -39 -199 -39c-109.333 0 -195.666 31.667 -258.999 95c-66 66 -99 154 -99 264c0 112.667 35.333 203.667 106 273c69.333 67.333 159.333 101 270 101c72.667 0 134 -13.333 184 -40z" />
    <glyph glyph-name="D" unicode="D" horiz-adv-x="687" 
d="M651 353c0 -126.667 -38.667 -222.667 -116 -288c-72 -60.667 -173.667 -91 -305 -91c-62.667 0 -123.667 3.66699 -183 11v696c72.667 12 143 18 211 18c125.333 0 220.333 -27.667 285 -83c72 -62 108 -149.667 108 -263zM487 350c0 74 -18.668 129.833 -56.001 167.5
s-92 56.5 -164 56.5c-32 0 -52.667 -1 -62 -3v-471c-2 0 14 0 48 0c74.667 0 132.334 20.833 173.001 62.5s61 104.167 61 187.5z" />
    <glyph glyph-name="E" unicode="E" horiz-adv-x="521" 
d="M485 -20h-438v714h424v-129h-266v-150h251v-129h-251v-177h280v-129z" />
    <glyph glyph-name="F" unicode="F" horiz-adv-x="516" 
d="M469 565h-264v-163h245v-128h-245v-294h-158v714h422v-129z" />
    <glyph glyph-name="G" unicode="G" horiz-adv-x="669" 
d="M614 17c-78.667 -29.333 -156.002 -44.002 -232.002 -44.002c-116 0 -206.667 31.667 -272 95c-66.667 64.667 -100 152.334 -100 263.001c0 110 35.833 199.167 107.5 267.5s165.834 102.5 282.501 102.5c74.667 0 140.334 -13.667 197.001 -41l-35 -129
c-56.667 26 -111.334 39 -164.001 39c-67.333 0 -121 -19.333 -161 -58c-42 -41.333 -63 -99.666 -63 -174.999s20.333 -134.333 61 -177c36.667 -38.667 87.334 -58 152.001 -58c40.667 0 65 1.66699 73 5v152h-123v125h277v-367z" />
    <glyph glyph-name="H" unicode="H" horiz-adv-x="677" 
d="M605 -20h-158v304h-242v-304h-158v714h158v-275h242v275h158v-714z" />
    <glyph glyph-name="I" unicode="I" horiz-adv-x="277" 
d="M205 -20h-158v714h158v-714z" />
    <glyph glyph-name="J" unicode="J" horiz-adv-x="401" 
d="M336 229c0 -173.333 -79 -260 -237 -260c-42 0 -83.333 8.33301 -124 25l20 127c40 -14 71 -21 93 -21c30 0 51.333 7.66699 64 23c17.333 20.667 26 57.667 26 111v460h158v-465z" />
    <glyph glyph-name="K" unicode="K" horiz-adv-x="598" 
d="M605 -20h-183.001l-185 298l-33 -39v-259h-157v714h157v-316h-37c12.667 20 27.334 41 44.001 63l190 253h193l-249 -308z" />
    <glyph glyph-name="L" unicode="L" horiz-adv-x="501" 
d="M480 -20h-433v714h158v-583h275v-131z" />
    <glyph glyph-name="M" unicode="M" horiz-adv-x="830" 
d="M775 -20l-154.999 0.000976562l-15 301c-6.66699 128 -9.66699 216.333 -9 265h42c-18.667 -69.333 -43.667 -149.333 -75 -240l-110 -320h-120l-101 315c-28.667 91.333 -51 173 -67 245h43c-2.66699 -88.667 -6.33398 -178.667 -11.001 -270l-17 -296h-151l47 714h182
l102 -307c24 -72.667 44 -145 60 -217h-38c18.667 75.333 40 147.666 64 216.999l106 307h182z" />
    <glyph glyph-name="N" unicode="N" horiz-adv-x="681" 
d="M610 -20l-152.001 0.000976562l-193 325c-50 85.333 -87.333 155.666 -112 210.999l38 13c4 -66.667 6 -157.667 6 -273v-276h-150v714h161l191 -319c44.667 -74 80.334 -141.667 107.001 -203l-37 -19c-6.66699 68.667 -10 158.667 -10 270v271h151v-714z" />
    <glyph glyph-name="O" unicode="O" horiz-adv-x="707" 
d="M672 344c0 -106 -27.332 -193.001 -81.999 -261.001c-60.667 -76 -145.334 -114 -254.001 -114c-102.667 0 -184.334 37.333 -245.001 112c-54 66.667 -81 150.334 -81 251.001c0 102.667 28 188.667 84 258c62.667 76.667 146.334 115 251.001 115
c103.333 0 185.333 -37 246 -111c54 -66 81 -149.333 81 -250zM507.001 339.999c0 63.333 -14.001 117.667 -42.001 163c-30.667 50 -72 75 -124 75c-54 0 -96 -25.333 -126 -76c-28 -45.333 -42 -101 -42 -167c0 -64 14 -118.667 42 -164
c30.667 -50 72.334 -75 125.001 -75c54 0 96 25.333 126 76c27.333 45.333 41 101.333 41 168z" />
    <glyph glyph-name="P" unicode="P" horiz-adv-x="565" 
d="M528 478c0 -66.667 -19.999 -120.333 -59.999 -161c-52.667 -54 -128.334 -81 -227.001 -81c-28.667 0 -41 -0.333008 -37 -1v-255h-157v701c66 12 133 18 201 18c92.667 0 163 -20.333 211 -61c46 -40 69 -93.333 69 -160zM371.001 473.001
c0 34 -10.168 59.5 -30.501 76.5s-49.833 25.5 -88.5 25.5c-28 0 -44 -0.333008 -48 -1v-213h38c40.667 0 72.334 9.66699 95.001 29s34 47 34 83z" />
    <glyph glyph-name="Q" unicode="Q" horiz-adv-x="713" 
d="M683 -2l-45 -128c-98.667 26.667 -192.667 57 -282 91c-14 4.66699 -25 7.33398 -33 8.00098c-90 4.66699 -163.667 38 -221 100c-61.333 66 -92 153.333 -92 262c0 109.333 30.833 199 92.5 269s143.167 105 244.5 105c100 0 180.333 -35.667 241 -107
c56 -66 84 -150.667 84 -254c0 -83.333 -17.333 -154.333 -52 -213c-34 -58 -75.667 -96.333 -125 -115v23c45.333 -12.667 108 -26.334 188 -41.001zM508 340c0 64 -14.001 118.667 -42.001 164c-30 49.333 -71 74 -123 74c-54 0 -96 -25.333 -126 -76
c-28.667 -46 -43 -102 -43 -168c0 -64 14 -118.667 42 -164c30.667 -49.333 72.334 -74 125.001 -74c54 0 96 25.333 126 76c27.333 45.333 41 101.333 41 168z" />
    <glyph glyph-name="R" unicode="R" horiz-adv-x="586" 
d="M565 -20l-165.999 0.000976562c-16 30 -33.667 89 -53 177c-8.66699 42 -20.5 70.167 -35.5 84.5s-36.5 21.5 -64.5 21.5h-42v-283h-157v701c64 12 130.667 18 200 18c98.667 0 170.667 -19.667 216 -59c43.333 -36.667 65 -86 65 -148c0 -45.333 -13.667 -85 -41 -119
c-24.667 -32 -52 -53.333 -82 -64v24c44 -16.667 75.667 -64.334 95 -143.001l28 -116c9.33301 -34 21.666 -65.333 36.999 -94zM370.001 481.001c0 63.333 -37.667 95.333 -113 96c-32 0 -49.667 -0.333008 -53 -1v-193h51c35.333 0 63.333 8.83301 84 26.5
s31 41.5 31 71.5z" />
    <glyph glyph-name="S" unicode="S" horiz-adv-x="524" 
d="M484 189c0 -62 -21.999 -112.999 -65.999 -152.999c-49.333 -44 -117 -66 -203 -66c-78.667 0 -146.334 18 -203.001 54l37 132c63.333 -37.333 120.666 -56 171.999 -56c34 0 59.833 7.16699 77.5 21.5s26.5 34.166 26.5 59.499c0 22.667 -7.83301 41.834 -23.5 57.501
s-43.167 30.834 -82.5 45.501c-128 47.333 -192 117.666 -192 210.999c0 60.667 23.167 110.667 69.5 150s107.5 59 183.5 59c66 0 126.333 -14.333 181 -43l-39 -130c-53.333 29.333 -101.666 44 -144.999 44c-30.667 0 -54 -7 -70 -21c-14 -12.667 -21 -28.667 -21 -48
c0 -21.333 8 -38.666 24 -51.999c16 -14.667 46.333 -30.667 91 -48c62 -24.667 108 -54.334 138 -89.001s45 -77.334 45 -128.001z" />
    <glyph glyph-name="T" unicode="T" horiz-adv-x="529" 
d="M524 563h-193v-583h-159v583h-192v131h544v-131z" />
    <glyph glyph-name="U" unicode="U" horiz-adv-x="671" 
d="M600 283c0 -104 -25.667 -182.667 -77 -236c-49.333 -52 -118 -78 -206 -78c-180.667 0 -271 104 -271 312v413h158v-419c0 -62 12 -108.667 36 -140c19.333 -25.333 46.333 -38 81 -38c80.667 0 121 59.333 121 178v419h158v-411z" />
    <glyph glyph-name="V" unicode="V" horiz-adv-x="607" 
d="M606 694l-244 -714h-160l-228 714h170l98 -332c32.667 -106 54 -183.333 64 -232h-40c12 52.667 34.333 130 67 232l106 332h167z" />
    <glyph glyph-name="W" unicode="W" horiz-adv-x="878" 
d="M868 694l-193 -714h-155l-78 345c-19.333 84.667 -32 151 -38 199h43c-7.33301 -46.667 -22 -113.334 -44 -200.001l-89 -344h-156l-173 714h166l73 -336c16 -74.667 30 -147 42 -217h-42c6.66699 42.667 22.667 115.667 48 219l82 334h154l75 -338
c20 -87.333 33.667 -158.333 41 -213h-43c9.33301 56.667 23 123.334 41 200.001l4 18l80 333h162z" />
    <glyph glyph-name="X" unicode="X" horiz-adv-x="611" 
d="M591 -20h-180l-83 153l-63 116h32c-0.666992 -3.33301 -20.334 -42 -59.001 -116l-77 -153h-179l210 362l-202 352h178l85 -158l51 -101h-33c12.667 27.333 29.334 61 50.001 101l85 158h178l-207 -349z" />
    <glyph glyph-name="Y" unicode="Y" horiz-adv-x="589" 
d="M587 694l-234 -412.999v-301h-158v298l-222 416h178l90 -190c26 -54.667 44.667 -96 56 -124h-34c10 27.333 28.333 68.666 55 123.999l91 190h178z" />
    <glyph glyph-name="Z" unicode="Z" horiz-adv-x="573" 
d="M543 -20h-541v86l331 498h-301v130h506v-90l-327 -494h332v-130z" />
    <glyph glyph-name="bracketleft" unicode="[" 
d="M48 0v700h500v-700h-500zM72 24h452v652h-452v-652z" />
    <glyph glyph-name="backslash" unicode="\" horiz-adv-x="373" 
d="M369 -60h-130l-268 765h131z" />
    <glyph glyph-name="bracketright" unicode="]" 
d="M48 0v700h500v-700h-500zM72 24h452v652h-452v-652z" />
    <glyph glyph-name="asciicircum" unicode="^" 
d="M48 0v700h500v-700h-500zM72 24h452v652h-452v-652z" />
    <glyph glyph-name="underscore" unicode="_" 
d="M48 0v700h500v-700h-500zM72 24h452v652h-452v-652z" />
    <glyph glyph-name="grave" unicode="`" 
d="M48 0v700h500v-700h-500zM72 24h452v652h-452v-652z" />
    <glyph glyph-name="a" unicode="a" horiz-adv-x="518" 
d="M460 -20h-147l-8 56h33c-33.333 -44.667 -85.333 -67 -156 -67c-54 0 -97.667 17.333 -131 52c-28.667 30 -43 67 -43 111c0 66 27.667 116.333 83 151s122.333 51.667 201 51v-11c0 50.667 -25.333 76 -76 76c-42 0 -89.333 -17 -142 -51l-35 114
c58.667 36 123.667 54 195 54c144 0 216 -73.667 216 -221v-179c0 -48 3.33301 -93.333 10 -136zM295 167v54.999c-86.667 2 -130 -24 -130 -78c0 -20.667 4.66699 -35.167 14 -43.5s21 -12.5 35 -12.5c17.333 0 34 5.83301 50 17.5s25.667 26.834 29 45.501
c1.33301 4.66699 2 10 2 16z" />
    <glyph glyph-name="b" unicode="b" horiz-adv-x="593" 
d="M557 250c0 -86 -24.333 -155.332 -73 -207.999c-45.333 -48.667 -101 -73 -167 -73c-80 0 -136.333 28.667 -169 86h37l-6 -75h-141c3.33301 53.333 5 103.666 5 150.999v598h158v-294h-39c32 54 89 81 171 81c67.333 0 121.5 -24.833 162.5 -74.5
s61.5 -113.5 61.5 -191.5zM397 246.001c0 44 -9.66699 79.332 -29 105.999c-18 26 -42.333 39 -73 39c-20 0 -38.5 -7 -55.5 -21s-28.5 -33.333 -34.5 -58c-2.66699 -10 -4 -20 -4 -30v-85c0 -29.333 9 -53.666 27 -72.999s39.667 -29 65 -29
c31.333 0 56.5 12.833 75.5 38.5s28.5 63.167 28.5 112.5z" />
    <glyph glyph-name="c" unicode="c" horiz-adv-x="467" 
d="M443 483l-31.998 -123.999c-43.333 21.333 -80.333 32 -111 32c-38.667 0 -69.834 -13.5 -93.501 -40.5s-35.5 -62.833 -35.5 -107.5c0 -46.667 12.333 -82.834 37 -108.501s55.334 -38.5 92.001 -38.5c29.333 0 68.666 10.333 117.999 31l22 -122
c-48.667 -23.333 -102.334 -35 -161.001 -35c-82 0 -147.167 24.667 -195.5 74s-72.5 114 -72.5 194s25.833 146.333 77.5 199s121.5 79 209.5 79c50 0 98.333 -11 145 -33z" />
    <glyph glyph-name="d" unicode="d" horiz-adv-x="590" 
d="M526 -20l-145.999 -0.000976562l-5 78h38c-30.667 -59.333 -88.334 -89 -173.001 -89c-67.333 0 -122.333 25.333 -165 76s-64 114.667 -64 192c0 82.667 22.667 150 68 202c45.333 51.333 102 77 170 77c76 0 127 -22 153 -66h-39v279h158v-598
c0 -47.333 1.66699 -97.666 5 -150.999zM363.001 204.999v81.001c0 12.667 -0.666992 22.667 -2 30c-5.33301 22.667 -16 41 -32 55s-34.333 21 -55 21c-30.667 0 -55.667 -13.5 -75 -40.5s-29 -63.833 -29 -110.5c0 -44.667 10 -80.334 30 -107.001
c18 -25.333 42 -38 72 -38c26 0 47.333 10.333 64 31c18 21.333 27 47.333 27 78z" />
    <glyph glyph-name="e" unicode="e" horiz-adv-x="526" 
d="M493 266c0 -20 -2.66699 -43.001 -8 -69.001h-319c0.666992 -29.333 13.667 -54.666 39 -75.999c22 -18.667 51.333 -28 88 -28c44 0 94 10.667 150 32l26 -115c-60.667 -26 -124.334 -39 -191.001 -39c-83.333 0 -148.666 24.333 -195.999 73s-71 112.667 -71 192
c0 77.333 21.333 142 64 194c47.333 58 111 87 191 87s140.333 -29.667 181 -89c30.667 -44 46 -98 46 -162zM340 313.999c0.666992 16 -5.33301 34 -18 54c-14 22.667 -35.333 34 -64 34c-26 0 -47.667 -11.333 -65 -34c-16 -20.667 -24.667 -38.667 -26 -54h173z" />
    <glyph glyph-name="f" unicode="f" horiz-adv-x="332" 
d="M362 719l-16 -127.001c-34 14 -58.667 21 -74 21c-40 0 -60 -34 -60 -102v-5h109v-121h-108v-405h-158v405h-66v121h66v2c0 78.667 21 138.334 63 179.001c37.333 35.333 84.333 53 141 53c32.667 0 67 -7 103 -21z" />
    <glyph glyph-name="g" unicode="g" horiz-adv-x="584" 
d="M520 506c-3.33301 -53.333 -4.99902 -106 -4.99902 -158v-278c0 -109.333 -25.333 -187 -76 -233c-48 -43.333 -114.333 -65 -199 -65c-72.667 0 -136.334 16.667 -191.001 50l38 125c56 -34 107 -51 153 -51c78.667 0 118 44.667 118 134v27h39
c-30 -49.333 -83 -74 -159 -74c-67.333 0 -122 24.667 -164 74s-63 110.333 -63 183c0 82 23.667 149 71 201c45.333 50 101.666 75 168.999 75c76.667 0 129.334 -25.667 158.001 -77h-38l4 67h145zM357.001 208v85.998c0 28.667 -8.16699 52.334 -24.5 71.001
s-36.833 28 -61.5 28c-27.333 0 -51 -12.833 -71 -38.5s-30 -62.5 -30 -110.5c0 -43.333 9.66699 -77.666 29 -102.999c18 -24.667 42 -37 72 -37c17.333 0 33.5 5.5 48.5 16.5s25.833 27.167 32.5 48.5c3.33301 10 5 23 5 39z" />
    <glyph glyph-name="h" unicode="h" horiz-adv-x="581" 
d="M515 -20h-158.001v297c0 74 -24.333 111 -73 111c-37.333 0 -63.666 -20.333 -78.999 -61c-2.66699 -8.66699 -4 -20 -4 -34v-313h-158v749h158v-292h-38c34 52.667 87.667 79 161 79c52.667 0 95.667 -16.667 129 -50c41.333 -41.333 62 -100.333 62 -177v-309z" />
    <glyph glyph-name="i" unicode="i" horiz-adv-x="269" 
d="M213 631c0 -24 -8.66797 -44.167 -26.001 -60.5s-39.666 -24.5 -66.999 -24.5c-26 0 -47.333 8.33301 -64 25s-25 36.667 -25 60s8.66699 43.166 26 59.499s39 24.5 65 24.5s47.667 -8.16699 65 -24.5s26 -36.166 26 -59.499zM200.999 -20h-158v526h158v-526z" />
    <glyph glyph-name="j" unicode="j" horiz-adv-x="280" 
d="M226 631c0 -24 -8.66699 -44.167 -26 -60.5s-39.333 -24.5 -66 -24.5s-48.334 8.33301 -65.001 25s-25 36.667 -25 60s8.66699 43.166 26 59.499s39.333 24.5 66 24.5s48.334 -8.16699 65.001 -24.5s25 -36.166 25 -59.499zM214 47c0 -100 -22.334 -171.667 -67.001 -215
c-41.333 -42 -108.666 -63.333 -201.999 -64l-15 123c52 4 85 13.667 99 29c18 20 27 73.667 27 161v425h158v-459z" />
    <glyph glyph-name="k" unicode="k" horiz-adv-x="528" 
d="M539 -20h-190l-134 203l-14 -17v-186h-158v749h158v-440h-38c8.66699 14.667 19.667 30 33 46l132 171h191l-198 -221z" />
    <glyph glyph-name="l" unicode="l" horiz-adv-x="269" 
d="M201 -20h-158v749h158v-749z" />
    <glyph glyph-name="m" unicode="m" horiz-adv-x="854" 
d="M789 -20h-155.998v293c0 76.667 -22.333 115 -67 115c-20 0 -37 -8.83301 -51 -26.5s-21 -39.5 -21 -65.5v-316h-156v307c0 33.333 -5.83301 58.5 -17.5 75.5s-27.167 25.5 -46.5 25.5c-20 0 -37.5 -9.66699 -52.5 -29s-22.5 -42.333 -22.5 -69v-310h-156v367
c0 42.667 -1.66699 95.667 -5 159h143l5 -73h-37c33.333 55.333 88 83 164 83c78 0 128.667 -30.333 152 -91h-32c12.667 20 31.667 38.667 57 56c33.333 23.333 71.666 35 114.999 35c51.333 0 93.666 -17.333 126.999 -52c38 -40 57 -98.667 57 -176v-308z" />
    <glyph glyph-name="n" unicode="n" horiz-adv-x="581" 
d="M515 -20h-158v299c0 72.667 -24.333 109 -73 109c-23.333 0 -43 -9.5 -59 -28.5s-24 -42.5 -24 -70.5v-309h-158v367c0 42.667 -1.66699 95.667 -5 159h145l5 -75h-37c10 18.667 29 36.667 57 54c34 20.667 71.667 31 113 31c53.333 0 97.333 -17 132 -51
c41.333 -40 62 -98 62 -174v-311z" />
    <glyph glyph-name="o" unicode="o" horiz-adv-x="572" 
d="M537 247c0 -78.667 -23.001 -144 -69.001 -196c-49.333 -54.667 -115.333 -82 -198 -82c-80 0 -143.167 26 -189.5 78s-69.5 116 -69.5 192c0 79.333 23.833 145.333 71.5 198s112.834 79 195.501 79c79.333 0 143.333 -26.333 192 -79c44.667 -50 67 -113.333 67 -190z
M374.999 244c0 42 -9.00098 77.666 -27.001 106.999c-18 30.667 -42.667 46 -74 46c-32.667 0 -58 -15.333 -76 -46c-18 -29.333 -27 -65.666 -27 -108.999c0 -42 9 -77.667 27 -107c18.667 -30.667 43.667 -46 75 -46c30.667 0 55.334 15.667 74.001 47
c18.667 30 28 66 28 108z" />
    <glyph glyph-name="p" unicode="p" horiz-adv-x="593" 
d="M557 249c0 -86.667 -24.001 -156 -72.001 -208c-45.333 -48 -101.666 -72 -168.999 -72c-74.667 0 -126 23 -154 69h39v-256h-158v544c0 52 -1.66699 112 -5 180h144l6 -77h-36c36 58 95.667 87 179 87c66 0 120.167 -25 162.5 -75s63.5 -114 63.5 -192zM396.999 245
c0 44 -9.66797 79.667 -29.001 107c-18 25.333 -42 38 -72 38c-20 0 -38.667 -7 -56 -21s-28.666 -33.667 -33.999 -59c-3.33301 -12 -5 -21.667 -5 -29v-81c0 -31.333 8.83301 -56.833 26.5 -76.5s39.5 -29.5 65.5 -29.5c31.333 0 56.5 13.167 75.5 39.5
s28.5 63.5 28.5 111.5z" />
    <glyph glyph-name="q" unicode="q" horiz-adv-x="589" 
d="M526 506c-3.33301 -68.667 -5 -121.667 -5 -159v-565h-158v267h39c-31.333 -53.333 -86.666 -80 -165.999 -80c-64.667 0 -118.334 25 -161.001 75s-64 113.667 -64 191c0 88 24.667 158 74 210c45.333 47.333 100.333 71 165 71c76.667 0 129 -25.667 157 -77h-38l4 67
h153zM363 200l-0.000976562 88.001c0 29.333 -8.5 53.833 -25.5 73.5s-38.167 29.5 -63.5 29.5c-30.667 0 -55.5 -13.333 -74.5 -40s-28.5 -63.334 -28.5 -110.001c0 -45.333 9.33301 -81 28 -107c18 -26 42.333 -39 73 -39c18.667 0 35.834 6 51.501 18s27.167 30 34.5 54
c3.33301 10.667 5 21.667 5 33z" />
    <glyph glyph-name="r" unicode="r" horiz-adv-x="364" 
d="M350 366c-29.333 5.33301 -48.999 8 -58.999 8c-28.667 0 -50.667 -11 -66 -33c-16 -22 -24 -50.667 -24 -86v-275h-158l1 353c0 56 -1.66699 113.667 -5 173h144l4 -93h-40c9.33301 25.333 28 49.333 56 72c29.333 20.667 61 31 95 31c11.333 0 28.666 -2 51.999 -6
v-144z" />
    <glyph glyph-name="s" unicode="s" horiz-adv-x="427" 
d="M390 140c0 -50.667 -19.166 -91.666 -57.499 -122.999s-90.166 -47 -155.499 -47c-60.667 0 -117 15 -169 45l35 123c53.333 -32.667 98.333 -49 135 -49c38.667 0 58 13.667 58 41c0 13.333 -4.33301 24.333 -13 33s-26.667 18 -54 28c-96.667 35.333 -145 88 -145 158
c0 47.333 18.333 87 55 119s85 48 145 48c53.333 0 103.666 -13.667 150.999 -41l-36 -119c-46.667 28 -84.667 42 -114 42c-15.333 0 -27 -3.33301 -35 -10s-12 -15.667 -12 -27s4.33301 -20.333 13 -27c9.33301 -8.66699 28.666 -18.334 57.999 -29.001
c94 -35.333 141 -90.333 141 -165z" />
    <glyph glyph-name="t" unicode="t" horiz-adv-x="364" 
d="M338 385h-119v-216c0 -46.667 12.667 -70 38 -70c16.667 0 40.667 4 72 12l4 -121c-34.667 -13.333 -71 -20 -109 -20c-50.667 0 -90.167 15.333 -118.5 46s-42.5 78.667 -42.5 144v225h-71v121h71v83l156 47v-130h119v-121z" />
    <glyph glyph-name="u" unicode="u" horiz-adv-x="578" 
d="M514 -20h-144l-6 74h37c-34 -56.667 -90.667 -85 -170 -85c-56 0 -101 17.667 -135 53c-37.333 40.667 -56 100 -56 178v306h158v-288c0 -80 23.667 -120 71 -120c36 0 61.333 18.667 76 56c4 10 6 21.667 6 35v317h158v-366c0 -46 1.66699 -99.333 5 -160z" />
    <glyph glyph-name="v" unicode="v" horiz-adv-x="523" 
d="M513 506l-200 -526h-142l-192 526h168l88 -272c14 -43.333 24.667 -79.333 32 -108h-39c6 24.667 16.667 60.667 32 108l87 272h166z" />
    <glyph glyph-name="w" unicode="w" horiz-adv-x="765" 
d="M751 506l-165 -526h-138l-67 227c-16.667 52.667 -28.667 99.667 -36 141h41c-7.33301 -42.667 -19.666 -90 -36.999 -142l-72 -226h-139l-155 526h164l59 -247c13.333 -55.333 23.333 -102 30 -140h-41c5.33301 30 17.666 76.333 36.999 139l73 248h128l70 -243
c16.667 -55.333 28.667 -103.333 36 -144h-40c5.33301 38.667 15.333 86.667 30 144l64 243h158z" />
    <glyph glyph-name="x" unicode="x" horiz-adv-x="515" 
d="M505 -20h-178.001l-69 111c-15.333 24.667 -29 48.667 -41 72h31c-6 -11.333 -19.333 -34.333 -40 -69l-67 -114h-176l180 268l-174 258h177l68 -108c12.667 -19.333 25.667 -41.333 39 -66h-30c10.667 20.667 23.334 43 38.001 67l64 107h176l-175 -254z" />
    <glyph glyph-name="y" unicode="y" horiz-adv-x="513" 
d="M507 506l-131.999 -362.001c-60 -162.667 -116.667 -268 -170 -316c-42 -37.333 -94.333 -61 -157 -71l-36 127c35.333 10 63.666 23 84.999 39c26 20 46.667 46 62 78c4 8 6 13 6 15c0 2.66699 -1.66699 8.33398 -5 17.001l-186 473h172l97 -286
c8.66699 -24.667 17 -51.667 25 -81h-38c3.33301 10.667 11 37.667 23 81l86 286h168z" />
    <glyph glyph-name="z" unicode="z" horiz-adv-x="459" 
d="M440 -20h-446v88l198 260c12 16.667 32.667 41.667 62 75v-24h-241v127h422v-92l-194 -256c-21.333 -28 -42 -53 -62 -75v24h261v-127z" />
    <glyph glyph-name="braceleft" unicode="{" 
d="M48 0v700h500v-700h-500zM72 24h452v652h-452v-652z" />
    <glyph glyph-name="bar" unicode="|" 
d="M48 0v700h500v-700h-500zM72 24h452v652h-452v-652z" />
    <glyph glyph-name="braceright" unicode="}" 
d="M48 0v700h500v-700h-500zM72 24h452v652h-452v-652z" />
    <glyph glyph-name="asciitilde" unicode="~" 
d="M48 0v700h500v-700h-500zM72 24h452v652h-452v-652z" />
    <glyph glyph-name="uni00A0" unicode="&#xa0;" horiz-adv-x="236" 
 />
    <glyph glyph-name="exclamdown" unicode="&#xa1;" 
d="M48 0v700h500v-700h-500zM72 24h452v652h-452v-652z" />
    <glyph glyph-name="cent" unicode="&#xa2;" 
d="M48 0v700h500v-700h-500zM72 24h452v652h-452v-652z" />
    <glyph glyph-name="sterling" unicode="&#xa3;" 
d="M48 0v700h500v-700h-500zM72 24h452v652h-452v-652z" />
    <glyph glyph-name="currency" unicode="&#xa4;" 
d="M48 0v700h500v-700h-500zM72 24h452v652h-452v-652z" />
    <glyph glyph-name="yen" unicode="&#xa5;" 
d="M48 0v700h500v-700h-500zM72 24h452v652h-452v-652z" />
    <glyph glyph-name="brokenbar" unicode="&#xa6;" 
d="M48 0v700h500v-700h-500zM72 24h452v652h-452v-652z" />
    <glyph glyph-name="section" unicode="&#xa7;" 
d="M48 0v700h500v-700h-500zM72 24h452v652h-452v-652z" />
    <glyph glyph-name="dieresis" unicode="&#xa8;" 
d="M48 0v700h500v-700h-500zM72 24h452v652h-452v-652z" />
    <glyph glyph-name="copyright" unicode="&#xa9;" 
d="M48 0v700h500v-700h-500zM72 24h452v652h-452v-652z" />
    <glyph glyph-name="ordfeminine" unicode="&#xaa;" 
d="M48 0v700h500v-700h-500zM72 24h452v652h-452v-652z" />
    <glyph glyph-name="guillemotleft" unicode="&#xab;" 
d="M48 0v700h500v-700h-500zM72 24h452v652h-452v-652z" />
    <glyph glyph-name="logicalnot" unicode="&#xac;" 
d="M48 0v700h500v-700h-500zM72 24h452v652h-452v-652z" />
    <glyph glyph-name="uni00AD" unicode="&#xad;" 
d="M48 0v700h500v-700h-500zM72 24h452v652h-452v-652z" />
    <glyph glyph-name="registered" unicode="&#xae;" 
d="M48 0v700h500v-700h-500zM72 24h452v652h-452v-652z" />
    <glyph glyph-name="macron" unicode="&#xaf;" 
d="M48 0v700h500v-700h-500zM72 24h452v652h-452v-652z" />
    <glyph glyph-name="degree" unicode="&#xb0;" 
d="M48 0v700h500v-700h-500zM72 24h452v652h-452v-652z" />
    <glyph glyph-name="plusminus" unicode="&#xb1;" 
d="M48 0v700h500v-700h-500zM72 24h452v652h-452v-652z" />
    <glyph glyph-name="uni00B2" unicode="&#xb2;" 
d="M48 0v700h500v-700h-500zM72 24h452v652h-452v-652z" />
    <glyph glyph-name="uni00B3" unicode="&#xb3;" 
d="M48 0v700h500v-700h-500zM72 24h452v652h-452v-652z" />
    <glyph glyph-name="acute" unicode="&#xb4;" 
d="M48 0v700h500v-700h-500zM72 24h452v652h-452v-652z" />
    <glyph glyph-name="mu" unicode="&#xb5;" 
d="M48 0v700h500v-700h-500zM72 24h452v652h-452v-652z" />
    <glyph glyph-name="paragraph" unicode="&#xb6;" 
d="M48 0v700h500v-700h-500zM72 24h452v652h-452v-652z" />
    <glyph glyph-name="periodcentered" unicode="&#xb7;" 
d="M48 0v700h500v-700h-500zM72 24h452v652h-452v-652z" />
    <glyph glyph-name="cedilla" unicode="&#xb8;" 
d="M48 0v700h500v-700h-500zM72 24h452v652h-452v-652z" />
    <glyph glyph-name="uni00B9" unicode="&#xb9;" 
d="M48 0v700h500v-700h-500zM72 24h452v652h-452v-652z" />
    <glyph glyph-name="ordmasculine" unicode="&#xba;" 
d="M48 0v700h500v-700h-500zM72 24h452v652h-452v-652z" />
    <glyph glyph-name="guillemotright" unicode="&#xbb;" 
d="M48 0v700h500v-700h-500zM72 24h452v652h-452v-652z" />
    <glyph glyph-name="onequarter" unicode="&#xbc;" 
d="M48 0v700h500v-700h-500zM72 24h452v652h-452v-652z" />
    <glyph glyph-name="onehalf" unicode="&#xbd;" 
d="M48 0v700h500v-700h-500zM72 24h452v652h-452v-652z" />
    <glyph glyph-name="threequarters" unicode="&#xbe;" 
d="M48 0v700h500v-700h-500zM72 24h452v652h-452v-652z" />
    <glyph glyph-name="questiondown" unicode="&#xbf;" 
d="M48 0v700h500v-700h-500zM72 24h452v652h-452v-652z" />
    <glyph glyph-name="Agrave" unicode="&#xc0;" 
d="M48 0v700h500v-700h-500zM72 24h452v652h-452v-652z" />
    <glyph glyph-name="Aacute" unicode="&#xc1;" 
d="M48 0v700h500v-700h-500zM72 24h452v652h-452v-652z" />
    <glyph glyph-name="Acircumflex" unicode="&#xc2;" 
d="M48 0v700h500v-700h-500zM72 24h452v652h-452v-652z" />
    <glyph glyph-name="Atilde" unicode="&#xc3;" 
d="M48 0v700h500v-700h-500zM72 24h452v652h-452v-652z" />
    <glyph glyph-name="Adieresis" unicode="&#xc4;" 
d="M48 0v700h500v-700h-500zM72 24h452v652h-452v-652z" />
    <glyph glyph-name="Aring" unicode="&#xc5;" 
d="M48 0v700h500v-700h-500zM72 24h452v652h-452v-652z" />
    <glyph glyph-name="AE" unicode="&#xc6;" 
d="M48 0v700h500v-700h-500zM72 24h452v652h-452v-652z" />
    <glyph glyph-name="Ccedilla" unicode="&#xc7;" 
d="M48 0v700h500v-700h-500zM72 24h452v652h-452v-652z" />
    <glyph glyph-name="Egrave" unicode="&#xc8;" 
d="M48 0v700h500v-700h-500zM72 24h452v652h-452v-652z" />
    <glyph glyph-name="Eacute" unicode="&#xc9;" 
d="M48 0v700h500v-700h-500zM72 24h452v652h-452v-652z" />
    <glyph glyph-name="Ecircumflex" unicode="&#xca;" 
d="M48 0v700h500v-700h-500zM72 24h452v652h-452v-652z" />
    <glyph glyph-name="Edieresis" unicode="&#xcb;" 
d="M48 0v700h500v-700h-500zM72 24h452v652h-452v-652z" />
    <glyph glyph-name="Igrave" unicode="&#xcc;" 
d="M48 0v700h500v-700h-500zM72 24h452v652h-452v-652z" />
    <glyph glyph-name="Iacute" unicode="&#xcd;" 
d="M48 0v700h500v-700h-500zM72 24h452v652h-452v-652z" />
    <glyph glyph-name="Icircumflex" unicode="&#xce;" 
d="M48 0v700h500v-700h-500zM72 24h452v652h-452v-652z" />
    <glyph glyph-name="Idieresis" unicode="&#xcf;" 
d="M48 0v700h500v-700h-500zM72 24h452v652h-452v-652z" />
    <glyph glyph-name="Eth" unicode="&#xd0;" 
d="M48 0v700h500v-700h-500zM72 24h452v652h-452v-652z" />
    <glyph glyph-name="Ntilde" unicode="&#xd1;" 
d="M48 0v700h500v-700h-500zM72 24h452v652h-452v-652z" />
    <glyph glyph-name="Ograve" unicode="&#xd2;" 
d="M48 0v700h500v-700h-500zM72 24h452v652h-452v-652z" />
    <glyph glyph-name="Oacute" unicode="&#xd3;" 
d="M48 0v700h500v-700h-500zM72 24h452v652h-452v-652z" />
    <glyph glyph-name="Ocircumflex" unicode="&#xd4;" 
d="M48 0v700h500v-700h-500zM72 24h452v652h-452v-652z" />
    <glyph glyph-name="Otilde" unicode="&#xd5;" 
d="M48 0v700h500v-700h-500zM72 24h452v652h-452v-652z" />
    <glyph glyph-name="Odieresis" unicode="&#xd6;" 
d="M48 0v700h500v-700h-500zM72 24h452v652h-452v-652z" />
    <glyph glyph-name="multiply" unicode="&#xd7;" 
d="M48 0v700h500v-700h-500zM72 24h452v652h-452v-652z" />
    <glyph glyph-name="Oslash" unicode="&#xd8;" 
d="M48 0v700h500v-700h-500zM72 24h452v652h-452v-652z" />
    <glyph glyph-name="Ugrave" unicode="&#xd9;" 
d="M48 0v700h500v-700h-500zM72 24h452v652h-452v-652z" />
    <glyph glyph-name="Uacute" unicode="&#xda;" 
d="M48 0v700h500v-700h-500zM72 24h452v652h-452v-652z" />
    <glyph glyph-name="Ucircumflex" unicode="&#xdb;" 
d="M48 0v700h500v-700h-500zM72 24h452v652h-452v-652z" />
    <glyph glyph-name="Udieresis" unicode="&#xdc;" 
d="M48 0v700h500v-700h-500zM72 24h452v652h-452v-652z" />
    <glyph glyph-name="Yacute" unicode="&#xdd;" 
d="M48 0v700h500v-700h-500zM72 24h452v652h-452v-652z" />
    <glyph glyph-name="Thorn" unicode="&#xde;" 
d="M48 0v700h500v-700h-500zM72 24h452v652h-452v-652z" />
    <glyph glyph-name="germandbls" unicode="&#xdf;" 
d="M48 0v700h500v-700h-500zM72 24h452v652h-452v-652z" />
    <glyph glyph-name="agrave" unicode="&#xe0;" 
d="M48 0v700h500v-700h-500zM72 24h452v652h-452v-652z" />
    <glyph glyph-name="aacute" unicode="&#xe1;" 
d="M48 0v700h500v-700h-500zM72 24h452v652h-452v-652z" />
    <glyph glyph-name="acircumflex" unicode="&#xe2;" 
d="M48 0v700h500v-700h-500zM72 24h452v652h-452v-652z" />
    <glyph glyph-name="atilde" unicode="&#xe3;" 
d="M48 0v700h500v-700h-500zM72 24h452v652h-452v-652z" />
    <glyph glyph-name="adieresis" unicode="&#xe4;" 
d="M48 0v700h500v-700h-500zM72 24h452v652h-452v-652z" />
    <glyph glyph-name="aring" unicode="&#xe5;" 
d="M48 0v700h500v-700h-500zM72 24h452v652h-452v-652z" />
    <glyph glyph-name="ae" unicode="&#xe6;" 
d="M48 0v700h500v-700h-500zM72 24h452v652h-452v-652z" />
    <glyph glyph-name="ccedilla" unicode="&#xe7;" 
d="M48 0v700h500v-700h-500zM72 24h452v652h-452v-652z" />
    <glyph glyph-name="egrave" unicode="&#xe8;" 
d="M48 0v700h500v-700h-500zM72 24h452v652h-452v-652z" />
    <glyph glyph-name="eacute" unicode="&#xe9;" 
d="M48 0v700h500v-700h-500zM72 24h452v652h-452v-652z" />
    <glyph glyph-name="ecircumflex" unicode="&#xea;" 
d="M48 0v700h500v-700h-500zM72 24h452v652h-452v-652z" />
    <glyph glyph-name="edieresis" unicode="&#xeb;" 
d="M48 0v700h500v-700h-500zM72 24h452v652h-452v-652z" />
    <glyph glyph-name="igrave" unicode="&#xec;" 
d="M48 0v700h500v-700h-500zM72 24h452v652h-452v-652z" />
    <glyph glyph-name="iacute" unicode="&#xed;" 
d="M48 0v700h500v-700h-500zM72 24h452v652h-452v-652z" />
    <glyph glyph-name="icircumflex" unicode="&#xee;" 
d="M48 0v700h500v-700h-500zM72 24h452v652h-452v-652z" />
    <glyph glyph-name="idieresis" unicode="&#xef;" 
d="M48 0v700h500v-700h-500zM72 24h452v652h-452v-652z" />
    <glyph glyph-name="eth" unicode="&#xf0;" 
d="M48 0v700h500v-700h-500zM72 24h452v652h-452v-652z" />
    <glyph glyph-name="ntilde" unicode="&#xf1;" 
d="M48 0v700h500v-700h-500zM72 24h452v652h-452v-652z" />
    <glyph glyph-name="ograve" unicode="&#xf2;" 
d="M48 0v700h500v-700h-500zM72 24h452v652h-452v-652z" />
    <glyph glyph-name="oacute" unicode="&#xf3;" 
d="M48 0v700h500v-700h-500zM72 24h452v652h-452v-652z" />
    <glyph glyph-name="ocircumflex" unicode="&#xf4;" 
d="M48 0v700h500v-700h-500zM72 24h452v652h-452v-652z" />
    <glyph glyph-name="otilde" unicode="&#xf5;" 
d="M48 0v700h500v-700h-500zM72 24h452v652h-452v-652z" />
    <glyph glyph-name="odieresis" unicode="&#xf6;" 
d="M48 0v700h500v-700h-500zM72 24h452v652h-452v-652z" />
    <glyph glyph-name="divide" unicode="&#xf7;" 
d="M48 0v700h500v-700h-500zM72 24h452v652h-452v-652z" />
    <glyph glyph-name="oslash" unicode="&#xf8;" 
d="M48 0v700h500v-700h-500zM72 24h452v652h-452v-652z" />
    <glyph glyph-name="ugrave" unicode="&#xf9;" 
d="M48 0v700h500v-700h-500zM72 24h452v652h-452v-652z" />
    <glyph glyph-name="uacute" unicode="&#xfa;" 
d="M48 0v700h500v-700h-500zM72 24h452v652h-452v-652z" />
    <glyph glyph-name="ucircumflex" unicode="&#xfb;" 
d="M48 0v700h500v-700h-500zM72 24h452v652h-452v-652z" />
    <glyph glyph-name="udieresis" unicode="&#xfc;" 
d="M48 0v700h500v-700h-500zM72 24h452v652h-452v-652z" />
    <glyph glyph-name="yacute" unicode="&#xfd;" 
d="M48 0v700h500v-700h-500zM72 24h452v652h-452v-652z" />
    <glyph glyph-name="thorn" unicode="&#xfe;" 
d="M48 0v700h500v-700h-500zM72 24h452v652h-452v-652z" />
    <glyph glyph-name="ydieresis" unicode="&#xff;" 
d="M48 0v700h500v-700h-500zM72 24h452v652h-452v-652z" />
    <glyph glyph-name="Amacron" unicode="&#x100;" 
d="M48 0v700h500v-700h-500zM72 24h452v652h-452v-652z" />
    <glyph glyph-name="amacron" unicode="&#x101;" 
d="M48 0v700h500v-700h-500zM72 24h452v652h-452v-652z" />
    <glyph glyph-name="Abreve" unicode="&#x102;" 
d="M48 0v700h500v-700h-500zM72 24h452v652h-452v-652z" />
    <glyph glyph-name="abreve" unicode="&#x103;" 
d="M48 0v700h500v-700h-500zM72 24h452v652h-452v-652z" />
    <glyph glyph-name="Aogonek" unicode="&#x104;" 
d="M48 0v700h500v-700h-500zM72 24h452v652h-452v-652z" />
    <glyph glyph-name="aogonek" unicode="&#x105;" 
d="M48 0v700h500v-700h-500zM72 24h452v652h-452v-652z" />
    <glyph glyph-name="Cacute" unicode="&#x106;" 
d="M48 0v700h500v-700h-500zM72 24h452v652h-452v-652z" />
    <glyph glyph-name="cacute" unicode="&#x107;" 
d="M48 0v700h500v-700h-500zM72 24h452v652h-452v-652z" />
    <glyph glyph-name="Ccircumflex" unicode="&#x108;" 
d="M48 0v700h500v-700h-500zM72 24h452v652h-452v-652z" />
    <glyph glyph-name="ccircumflex" unicode="&#x109;" 
d="M48 0v700h500v-700h-500zM72 24h452v652h-452v-652z" />
    <glyph glyph-name="Cdotaccent" unicode="&#x10a;" 
d="M48 0v700h500v-700h-500zM72 24h452v652h-452v-652z" />
    <glyph glyph-name="cdotaccent" unicode="&#x10b;" 
d="M48 0v700h500v-700h-500zM72 24h452v652h-452v-652z" />
    <glyph glyph-name="Ccaron" unicode="&#x10c;" 
d="M48 0v700h500v-700h-500zM72 24h452v652h-452v-652z" />
    <glyph glyph-name="ccaron" unicode="&#x10d;" 
d="M48 0v700h500v-700h-500zM72 24h452v652h-452v-652z" />
    <glyph glyph-name="Dcaron" unicode="&#x10e;" 
d="M48 0v700h500v-700h-500zM72 24h452v652h-452v-652z" />
    <glyph glyph-name="dcaron" unicode="&#x10f;" 
d="M48 0v700h500v-700h-500zM72 24h452v652h-452v-652z" />
    <glyph glyph-name="Dcroat" unicode="&#x110;" 
d="M48 0v700h500v-700h-500zM72 24h452v652h-452v-652z" />
    <glyph glyph-name="dcroat" unicode="&#x111;" 
d="M48 0v700h500v-700h-500zM72 24h452v652h-452v-652z" />
    <glyph glyph-name="Emacron" unicode="&#x112;" 
d="M48 0v700h500v-700h-500zM72 24h452v652h-452v-652z" />
    <glyph glyph-name="emacron" unicode="&#x113;" 
d="M48 0v700h500v-700h-500zM72 24h452v652h-452v-652z" />
    <glyph glyph-name="Ebreve" unicode="&#x114;" 
d="M48 0v700h500v-700h-500zM72 24h452v652h-452v-652z" />
    <glyph glyph-name="ebreve" unicode="&#x115;" 
d="M48 0v700h500v-700h-500zM72 24h452v652h-452v-652z" />
    <glyph glyph-name="Edotaccent" unicode="&#x116;" 
d="M48 0v700h500v-700h-500zM72 24h452v652h-452v-652z" />
    <glyph glyph-name="edotaccent" unicode="&#x117;" 
d="M48 0v700h500v-700h-500zM72 24h452v652h-452v-652z" />
    <glyph glyph-name="Eogonek" unicode="&#x118;" 
d="M48 0v700h500v-700h-500zM72 24h452v652h-452v-652z" />
    <glyph glyph-name="eogonek" unicode="&#x119;" 
d="M48 0v700h500v-700h-500zM72 24h452v652h-452v-652z" />
    <glyph glyph-name="Ecaron" unicode="&#x11a;" 
d="M48 0v700h500v-700h-500zM72 24h452v652h-452v-652z" />
    <glyph glyph-name="ecaron" unicode="&#x11b;" 
d="M48 0v700h500v-700h-500zM72 24h452v652h-452v-652z" />
    <glyph glyph-name="Gcircumflex" unicode="&#x11c;" 
d="M48 0v700h500v-700h-500zM72 24h452v652h-452v-652z" />
    <glyph glyph-name="gcircumflex" unicode="&#x11d;" 
d="M48 0v700h500v-700h-500zM72 24h452v652h-452v-652z" />
    <glyph glyph-name="Gbreve" unicode="&#x11e;" 
d="M48 0v700h500v-700h-500zM72 24h452v652h-452v-652z" />
    <glyph glyph-name="gbreve" unicode="&#x11f;" 
d="M48 0v700h500v-700h-500zM72 24h452v652h-452v-652z" />
    <glyph glyph-name="Gdotaccent" unicode="&#x120;" 
d="M48 0v700h500v-700h-500zM72 24h452v652h-452v-652z" />
    <glyph glyph-name="gdotaccent" unicode="&#x121;" 
d="M48 0v700h500v-700h-500zM72 24h452v652h-452v-652z" />
    <glyph glyph-name="uni0122" unicode="&#x122;" 
d="M48 0v700h500v-700h-500zM72 24h452v652h-452v-652z" />
    <glyph glyph-name="uni0123" unicode="&#x123;" 
d="M48 0v700h500v-700h-500zM72 24h452v652h-452v-652z" />
    <glyph glyph-name="Hcircumflex" unicode="&#x124;" 
d="M48 0v700h500v-700h-500zM72 24h452v652h-452v-652z" />
    <glyph glyph-name="hcircumflex" unicode="&#x125;" 
d="M48 0v700h500v-700h-500zM72 24h452v652h-452v-652z" />
    <glyph glyph-name="Hbar" unicode="&#x126;" 
d="M48 0v700h500v-700h-500zM72 24h452v652h-452v-652z" />
    <glyph glyph-name="hbar" unicode="&#x127;" 
d="M48 0v700h500v-700h-500zM72 24h452v652h-452v-652z" />
    <glyph glyph-name="Itilde" unicode="&#x128;" 
d="M48 0v700h500v-700h-500zM72 24h452v652h-452v-652z" />
    <glyph glyph-name="itilde" unicode="&#x129;" 
d="M48 0v700h500v-700h-500zM72 24h452v652h-452v-652z" />
    <glyph glyph-name="Imacron" unicode="&#x12a;" 
d="M48 0v700h500v-700h-500zM72 24h452v652h-452v-652z" />
    <glyph glyph-name="imacron" unicode="&#x12b;" 
d="M48 0v700h500v-700h-500zM72 24h452v652h-452v-652z" />
    <glyph glyph-name="Ibreve" unicode="&#x12c;" 
d="M48 0v700h500v-700h-500zM72 24h452v652h-452v-652z" />
    <glyph glyph-name="ibreve" unicode="&#x12d;" 
d="M48 0v700h500v-700h-500zM72 24h452v652h-452v-652z" />
    <glyph glyph-name="Iogonek" unicode="&#x12e;" 
d="M48 0v700h500v-700h-500zM72 24h452v652h-452v-652z" />
    <glyph glyph-name="iogonek" unicode="&#x12f;" 
d="M48 0v700h500v-700h-500zM72 24h452v652h-452v-652z" />
    <glyph glyph-name="Idotaccent" unicode="&#x130;" 
d="M48 0v700h500v-700h-500zM72 24h452v652h-452v-652z" />
    <glyph glyph-name="dotlessi" unicode="&#x131;" 
d="M48 0v700h500v-700h-500zM72 24h452v652h-452v-652z" />
    <glyph glyph-name="IJ" unicode="&#x132;" 
d="M48 0v700h500v-700h-500zM72 24h452v652h-452v-652z" />
    <glyph glyph-name="ij" unicode="&#x133;" 
d="M48 0v700h500v-700h-500zM72 24h452v652h-452v-652z" />
    <glyph glyph-name="Jcircumflex" unicode="&#x134;" 
d="M48 0v700h500v-700h-500zM72 24h452v652h-452v-652z" />
    <glyph glyph-name="jcircumflex" unicode="&#x135;" 
d="M48 0v700h500v-700h-500zM72 24h452v652h-452v-652z" />
    <glyph glyph-name="uni0136" unicode="&#x136;" 
d="M48 0v700h500v-700h-500zM72 24h452v652h-452v-652z" />
    <glyph glyph-name="uni0137" unicode="&#x137;" 
d="M48 0v700h500v-700h-500zM72 24h452v652h-452v-652z" />
    <glyph glyph-name="kgreenlandic" unicode="&#x138;" 
d="M48 0v700h500v-700h-500zM72 24h452v652h-452v-652z" />
    <glyph glyph-name="Lacute" unicode="&#x139;" 
d="M48 0v700h500v-700h-500zM72 24h452v652h-452v-652z" />
    <glyph glyph-name="lacute" unicode="&#x13a;" 
d="M48 0v700h500v-700h-500zM72 24h452v652h-452v-652z" />
    <glyph glyph-name="uni013B" unicode="&#x13b;" 
d="M48 0v700h500v-700h-500zM72 24h452v652h-452v-652z" />
    <glyph glyph-name="uni013C" unicode="&#x13c;" 
d="M48 0v700h500v-700h-500zM72 24h452v652h-452v-652z" />
    <glyph glyph-name="Lcaron" unicode="&#x13d;" 
d="M48 0v700h500v-700h-500zM72 24h452v652h-452v-652z" />
    <glyph glyph-name="lcaron" unicode="&#x13e;" 
d="M48 0v700h500v-700h-500zM72 24h452v652h-452v-652z" />
    <glyph glyph-name="Ldot" unicode="&#x13f;" 
d="M48 0v700h500v-700h-500zM72 24h452v652h-452v-652z" />
    <glyph glyph-name="ldot" unicode="&#x140;" 
d="M48 0v700h500v-700h-500zM72 24h452v652h-452v-652z" />
    <glyph glyph-name="Lslash" unicode="&#x141;" 
d="M48 0v700h500v-700h-500zM72 24h452v652h-452v-652z" />
    <glyph glyph-name="lslash" unicode="&#x142;" 
d="M48 0v700h500v-700h-500zM72 24h452v652h-452v-652z" />
    <glyph glyph-name="Nacute" unicode="&#x143;" 
d="M48 0v700h500v-700h-500zM72 24h452v652h-452v-652z" />
    <glyph glyph-name="nacute" unicode="&#x144;" 
d="M48 0v700h500v-700h-500zM72 24h452v652h-452v-652z" />
    <glyph glyph-name="uni0145" unicode="&#x145;" 
d="M48 0v700h500v-700h-500zM72 24h452v652h-452v-652z" />
    <glyph glyph-name="uni0146" unicode="&#x146;" 
d="M48 0v700h500v-700h-500zM72 24h452v652h-452v-652z" />
    <glyph glyph-name="Ncaron" unicode="&#x147;" 
d="M48 0v700h500v-700h-500zM72 24h452v652h-452v-652z" />
    <glyph glyph-name="ncaron" unicode="&#x148;" 
d="M48 0v700h500v-700h-500zM72 24h452v652h-452v-652z" />
    <glyph glyph-name="napostrophe" unicode="&#x149;" 
d="M48 0v700h500v-700h-500zM72 24h452v652h-452v-652z" />
    <glyph glyph-name="Eng" unicode="&#x14a;" 
d="M48 0v700h500v-700h-500zM72 24h452v652h-452v-652z" />
    <glyph glyph-name="eng" unicode="&#x14b;" 
d="M48 0v700h500v-700h-500zM72 24h452v652h-452v-652z" />
    <glyph glyph-name="Omacron" unicode="&#x14c;" 
d="M48 0v700h500v-700h-500zM72 24h452v652h-452v-652z" />
    <glyph glyph-name="omacron" unicode="&#x14d;" 
d="M48 0v700h500v-700h-500zM72 24h452v652h-452v-652z" />
    <glyph glyph-name="Obreve" unicode="&#x14e;" 
d="M48 0v700h500v-700h-500zM72 24h452v652h-452v-652z" />
    <glyph glyph-name="obreve" unicode="&#x14f;" 
d="M48 0v700h500v-700h-500zM72 24h452v652h-452v-652z" />
    <glyph glyph-name="Ohungarumlaut" unicode="&#x150;" 
d="M48 0v700h500v-700h-500zM72 24h452v652h-452v-652z" />
    <glyph glyph-name="ohungarumlaut" unicode="&#x151;" 
d="M48 0v700h500v-700h-500zM72 24h452v652h-452v-652z" />
    <glyph glyph-name="OE" unicode="&#x152;" 
d="M48 0v700h500v-700h-500zM72 24h452v652h-452v-652z" />
    <glyph glyph-name="oe" unicode="&#x153;" 
d="M48 0v700h500v-700h-500zM72 24h452v652h-452v-652z" />
    <glyph glyph-name="Racute" unicode="&#x154;" 
d="M48 0v700h500v-700h-500zM72 24h452v652h-452v-652z" />
    <glyph glyph-name="racute" unicode="&#x155;" 
d="M48 0v700h500v-700h-500zM72 24h452v652h-452v-652z" />
    <glyph glyph-name="uni0156" unicode="&#x156;" 
d="M48 0v700h500v-700h-500zM72 24h452v652h-452v-652z" />
    <glyph glyph-name="uni0157" unicode="&#x157;" 
d="M48 0v700h500v-700h-500zM72 24h452v652h-452v-652z" />
    <glyph glyph-name="Rcaron" unicode="&#x158;" 
d="M48 0v700h500v-700h-500zM72 24h452v652h-452v-652z" />
    <glyph glyph-name="rcaron" unicode="&#x159;" 
d="M48 0v700h500v-700h-500zM72 24h452v652h-452v-652z" />
    <glyph glyph-name="Sacute" unicode="&#x15a;" 
d="M48 0v700h500v-700h-500zM72 24h452v652h-452v-652z" />
    <glyph glyph-name="sacute" unicode="&#x15b;" 
d="M48 0v700h500v-700h-500zM72 24h452v652h-452v-652z" />
    <glyph glyph-name="Scircumflex" unicode="&#x15c;" 
d="M48 0v700h500v-700h-500zM72 24h452v652h-452v-652z" />
    <glyph glyph-name="scircumflex" unicode="&#x15d;" 
d="M48 0v700h500v-700h-500zM72 24h452v652h-452v-652z" />
    <glyph glyph-name="Scedilla" unicode="&#x15e;" 
d="M48 0v700h500v-700h-500zM72 24h452v652h-452v-652z" />
    <glyph glyph-name="scedilla" unicode="&#x15f;" 
d="M48 0v700h500v-700h-500zM72 24h452v652h-452v-652z" />
    <glyph glyph-name="Scaron" unicode="&#x160;" 
d="M48 0v700h500v-700h-500zM72 24h452v652h-452v-652z" />
    <glyph glyph-name="scaron" unicode="&#x161;" 
d="M48 0v700h500v-700h-500zM72 24h452v652h-452v-652z" />
    <glyph glyph-name="uni0162" unicode="&#x162;" 
d="M48 0v700h500v-700h-500zM72 24h452v652h-452v-652z" />
    <glyph glyph-name="uni0163" unicode="&#x163;" 
d="M48 0v700h500v-700h-500zM72 24h452v652h-452v-652z" />
    <glyph glyph-name="Tcaron" unicode="&#x164;" 
d="M48 0v700h500v-700h-500zM72 24h452v652h-452v-652z" />
    <glyph glyph-name="tcaron" unicode="&#x165;" 
d="M48 0v700h500v-700h-500zM72 24h452v652h-452v-652z" />
    <glyph glyph-name="Tbar" unicode="&#x166;" 
d="M48 0v700h500v-700h-500zM72 24h452v652h-452v-652z" />
    <glyph glyph-name="tbar" unicode="&#x167;" 
d="M48 0v700h500v-700h-500zM72 24h452v652h-452v-652z" />
    <glyph glyph-name="Utilde" unicode="&#x168;" 
d="M48 0v700h500v-700h-500zM72 24h452v652h-452v-652z" />
    <glyph glyph-name="utilde" unicode="&#x169;" 
d="M48 0v700h500v-700h-500zM72 24h452v652h-452v-652z" />
    <glyph glyph-name="Umacron" unicode="&#x16a;" 
d="M48 0v700h500v-700h-500zM72 24h452v652h-452v-652z" />
    <glyph glyph-name="umacron" unicode="&#x16b;" 
d="M48 0v700h500v-700h-500zM72 24h452v652h-452v-652z" />
    <glyph glyph-name="Ubreve" unicode="&#x16c;" 
d="M48 0v700h500v-700h-500zM72 24h452v652h-452v-652z" />
    <glyph glyph-name="ubreve" unicode="&#x16d;" 
d="M48 0v700h500v-700h-500zM72 24h452v652h-452v-652z" />
    <glyph glyph-name="Uring" unicode="&#x16e;" 
d="M48 0v700h500v-700h-500zM72 24h452v652h-452v-652z" />
    <glyph glyph-name="uring" unicode="&#x16f;" 
d="M48 0v700h500v-700h-500zM72 24h452v652h-452v-652z" />
    <glyph glyph-name="Uhungarumlaut" unicode="&#x170;" 
d="M48 0v700h500v-700h-500zM72 24h452v652h-452v-652z" />
    <glyph glyph-name="uhungarumlaut" unicode="&#x171;" 
d="M48 0v700h500v-700h-500zM72 24h452v652h-452v-652z" />
    <glyph glyph-name="Uogonek" unicode="&#x172;" 
d="M48 0v700h500v-700h-500zM72 24h452v652h-452v-652z" />
    <glyph glyph-name="uogonek" unicode="&#x173;" 
d="M48 0v700h500v-700h-500zM72 24h452v652h-452v-652z" />
    <glyph glyph-name="Wcircumflex" unicode="&#x174;" 
d="M48 0v700h500v-700h-500zM72 24h452v652h-452v-652z" />
    <glyph glyph-name="wcircumflex" unicode="&#x175;" 
d="M48 0v700h500v-700h-500zM72 24h452v652h-452v-652z" />
    <glyph glyph-name="Ycircumflex" unicode="&#x176;" 
d="M48 0v700h500v-700h-500zM72 24h452v652h-452v-652z" />
    <glyph glyph-name="ycircumflex" unicode="&#x177;" 
d="M48 0v700h500v-700h-500zM72 24h452v652h-452v-652z" />
    <glyph glyph-name="Ydieresis" unicode="&#x178;" 
d="M48 0v700h500v-700h-500zM72 24h452v652h-452v-652z" />
    <glyph glyph-name="Zacute" unicode="&#x179;" 
d="M48 0v700h500v-700h-500zM72 24h452v652h-452v-652z" />
    <glyph glyph-name="zacute" unicode="&#x17a;" 
d="M48 0v700h500v-700h-500zM72 24h452v652h-452v-652z" />
    <glyph glyph-name="Zdotaccent" unicode="&#x17b;" 
d="M48 0v700h500v-700h-500zM72 24h452v652h-452v-652z" />
    <glyph glyph-name="zdotaccent" unicode="&#x17c;" 
d="M48 0v700h500v-700h-500zM72 24h452v652h-452v-652z" />
    <glyph glyph-name="Zcaron" unicode="&#x17d;" 
d="M48 0v700h500v-700h-500zM72 24h452v652h-452v-652z" />
    <glyph glyph-name="zcaron" unicode="&#x17e;" 
d="M48 0v700h500v-700h-500zM72 24h452v652h-452v-652z" />
    <glyph glyph-name="longs" unicode="&#x17f;" 
d="M48 0v700h500v-700h-500zM72 24h452v652h-452v-652z" />
    <glyph glyph-name="florin" unicode="&#x192;" 
d="M48 0v700h500v-700h-500zM72 24h452v652h-452v-652z" />
    <glyph glyph-name="Ohorn" unicode="&#x1a0;" 
d="M48 0v700h500v-700h-500zM72 24h452v652h-452v-652z" />
    <glyph glyph-name="ohorn" unicode="&#x1a1;" 
d="M48 0v700h500v-700h-500zM72 24h452v652h-452v-652z" />
    <glyph glyph-name="Uhorn" unicode="&#x1af;" 
d="M48 0v700h500v-700h-500zM72 24h452v652h-452v-652z" />
    <glyph glyph-name="uhorn" unicode="&#x1b0;" 
d="M48 0v700h500v-700h-500zM72 24h452v652h-452v-652z" />
    <glyph glyph-name="uni01C0" unicode="&#x1c0;" 
d="M48 0v700h500v-700h-500zM72 24h452v652h-452v-652z" />
    <glyph glyph-name="uni01C1" unicode="&#x1c1;" 
d="M48 0v700h500v-700h-500zM72 24h452v652h-452v-652z" />
    <glyph glyph-name="uni01C3" unicode="&#x1c3;" 
d="M48 0v700h500v-700h-500zM72 24h452v652h-452v-652z" />
    <glyph glyph-name="uni01C4" unicode="&#x1c4;" 
d="M48 0v700h500v-700h-500zM72 24h452v652h-452v-652z" />
    <glyph glyph-name="uni01C5" unicode="&#x1c5;" 
d="M48 0v700h500v-700h-500zM72 24h452v652h-452v-652z" />
    <glyph glyph-name="uni01C6" unicode="&#x1c6;" 
d="M48 0v700h500v-700h-500zM72 24h452v652h-452v-652z" />
    <glyph glyph-name="uni01C7" unicode="&#x1c7;" 
d="M48 0v700h500v-700h-500zM72 24h452v652h-452v-652z" />
    <glyph glyph-name="uni01C8" unicode="&#x1c8;" 
d="M48 0v700h500v-700h-500zM72 24h452v652h-452v-652z" />
    <glyph glyph-name="uni01C9" unicode="&#x1c9;" 
d="M48 0v700h500v-700h-500zM72 24h452v652h-452v-652z" />
    <glyph glyph-name="uni01CA" unicode="&#x1ca;" 
d="M48 0v700h500v-700h-500zM72 24h452v652h-452v-652z" />
    <glyph glyph-name="uni01CB" unicode="&#x1cb;" 
d="M48 0v700h500v-700h-500zM72 24h452v652h-452v-652z" />
    <glyph glyph-name="uni01CC" unicode="&#x1cc;" 
d="M48 0v700h500v-700h-500zM72 24h452v652h-452v-652z" />
    <glyph glyph-name="uni01CD" unicode="&#x1cd;" 
d="M48 0v700h500v-700h-500zM72 24h452v652h-452v-652z" />
    <glyph glyph-name="uni01CE" unicode="&#x1ce;" 
d="M48 0v700h500v-700h-500zM72 24h452v652h-452v-652z" />
    <glyph glyph-name="uni01CF" unicode="&#x1cf;" 
d="M48 0v700h500v-700h-500zM72 24h452v652h-452v-652z" />
    <glyph glyph-name="uni01D0" unicode="&#x1d0;" 
d="M48 0v700h500v-700h-500zM72 24h452v652h-452v-652z" />
    <glyph glyph-name="uni01D1" unicode="&#x1d1;" 
d="M48 0v700h500v-700h-500zM72 24h452v652h-452v-652z" />
    <glyph glyph-name="uni01D2" unicode="&#x1d2;" 
d="M48 0v700h500v-700h-500zM72 24h452v652h-452v-652z" />
    <glyph glyph-name="uni01D3" unicode="&#x1d3;" 
d="M48 0v700h500v-700h-500zM72 24h452v652h-452v-652z" />
    <glyph glyph-name="uni01D4" unicode="&#x1d4;" 
d="M48 0v700h500v-700h-500zM72 24h452v652h-452v-652z" />
    <glyph glyph-name="uni01D5" unicode="&#x1d5;" 
d="M48 0v700h500v-700h-500zM72 24h452v652h-452v-652z" />
    <glyph glyph-name="uni01D6" unicode="&#x1d6;" 
d="M48 0v700h500v-700h-500zM72 24h452v652h-452v-652z" />
    <glyph glyph-name="uni01D7" unicode="&#x1d7;" 
d="M48 0v700h500v-700h-500zM72 24h452v652h-452v-652z" />
    <glyph glyph-name="uni01D8" unicode="&#x1d8;" 
d="M48 0v700h500v-700h-500zM72 24h452v652h-452v-652z" />
    <glyph glyph-name="uni01D9" unicode="&#x1d9;" 
d="M48 0v700h500v-700h-500zM72 24h452v652h-452v-652z" />
    <glyph glyph-name="uni01DA" unicode="&#x1da;" 
d="M48 0v700h500v-700h-500zM72 24h452v652h-452v-652z" />
    <glyph glyph-name="uni01DB" unicode="&#x1db;" 
d="M48 0v700h500v-700h-500zM72 24h452v652h-452v-652z" />
    <glyph glyph-name="uni01DC" unicode="&#x1dc;" 
d="M48 0v700h500v-700h-500zM72 24h452v652h-452v-652z" />
    <glyph glyph-name="uni01DD" unicode="&#x1dd;" 
d="M48 0v700h500v-700h-500zM72 24h452v652h-452v-652z" />
    <glyph glyph-name="uni01DE" unicode="&#x1de;" 
d="M48 0v700h500v-700h-500zM72 24h452v652h-452v-652z" />
    <glyph glyph-name="uni01DF" unicode="&#x1df;" 
d="M48 0v700h500v-700h-500zM72 24h452v652h-452v-652z" />
    <glyph glyph-name="uni01E0" unicode="&#x1e0;" 
d="M48 0v700h500v-700h-500zM72 24h452v652h-452v-652z" />
    <glyph glyph-name="uni01E1" unicode="&#x1e1;" 
d="M48 0v700h500v-700h-500zM72 24h452v652h-452v-652z" />
    <glyph glyph-name="uni01E2" unicode="&#x1e2;" 
d="M48 0v700h500v-700h-500zM72 24h452v652h-452v-652z" />
    <glyph glyph-name="uni01E3" unicode="&#x1e3;" 
d="M48 0v700h500v-700h-500zM72 24h452v652h-452v-652z" />
    <glyph glyph-name="Gcaron" unicode="&#x1e6;" 
d="M48 0v700h500v-700h-500zM72 24h452v652h-452v-652z" />
    <glyph glyph-name="gcaron" unicode="&#x1e7;" 
d="M48 0v700h500v-700h-500zM72 24h452v652h-452v-652z" />
    <glyph glyph-name="uni01E8" unicode="&#x1e8;" 
d="M48 0v700h500v-700h-500zM72 24h452v652h-452v-652z" />
    <glyph glyph-name="uni01E9" unicode="&#x1e9;" 
d="M48 0v700h500v-700h-500zM72 24h452v652h-452v-652z" />
    <glyph glyph-name="uni01EA" unicode="&#x1ea;" 
d="M48 0v700h500v-700h-500zM72 24h452v652h-452v-652z" />
    <glyph glyph-name="uni01EB" unicode="&#x1eb;" 
d="M48 0v700h500v-700h-500zM72 24h452v652h-452v-652z" />
    <glyph glyph-name="uni01EC" unicode="&#x1ec;" 
d="M48 0v700h500v-700h-500zM72 24h452v652h-452v-652z" />
    <glyph glyph-name="uni01ED" unicode="&#x1ed;" 
d="M48 0v700h500v-700h-500zM72 24h452v652h-452v-652z" />
    <glyph glyph-name="uni01F0" unicode="&#x1f0;" 
d="M48 0v700h500v-700h-500zM72 24h452v652h-452v-652z" />
    <glyph glyph-name="uni01F1" unicode="&#x1f1;" 
d="M48 0v700h500v-700h-500zM72 24h452v652h-452v-652z" />
    <glyph glyph-name="uni01F2" unicode="&#x1f2;" 
d="M48 0v700h500v-700h-500zM72 24h452v652h-452v-652z" />
    <glyph glyph-name="uni01F3" unicode="&#x1f3;" 
d="M48 0v700h500v-700h-500zM72 24h452v652h-452v-652z" />
    <glyph glyph-name="uni01F4" unicode="&#x1f4;" 
d="M48 0v700h500v-700h-500zM72 24h452v652h-452v-652z" />
    <glyph glyph-name="uni01F5" unicode="&#x1f5;" 
d="M48 0v700h500v-700h-500zM72 24h452v652h-452v-652z" />
    <glyph glyph-name="uni01F8" unicode="&#x1f8;" 
d="M48 0v700h500v-700h-500zM72 24h452v652h-452v-652z" />
    <glyph glyph-name="uni01F9" unicode="&#x1f9;" 
d="M48 0v700h500v-700h-500zM72 24h452v652h-452v-652z" />
    <glyph glyph-name="Aringacute" unicode="&#x1fa;" 
d="M48 0v700h500v-700h-500zM72 24h452v652h-452v-652z" />
    <glyph glyph-name="aringacute" unicode="&#x1fb;" 
d="M48 0v700h500v-700h-500zM72 24h452v652h-452v-652z" />
    <glyph glyph-name="AEacute" unicode="&#x1fc;" 
d="M48 0v700h500v-700h-500zM72 24h452v652h-452v-652z" />
    <glyph glyph-name="aeacute" unicode="&#x1fd;" 
d="M48 0v700h500v-700h-500zM72 24h452v652h-452v-652z" />
    <glyph glyph-name="Oslashacute" unicode="&#x1fe;" 
d="M48 0v700h500v-700h-500zM72 24h452v652h-452v-652z" />
    <glyph glyph-name="oslashacute" unicode="&#x1ff;" 
d="M48 0v700h500v-700h-500zM72 24h452v652h-452v-652z" />
    <glyph glyph-name="uni0200" unicode="&#x200;" 
d="M48 0v700h500v-700h-500zM72 24h452v652h-452v-652z" />
    <glyph glyph-name="uni0201" unicode="&#x201;" 
d="M48 0v700h500v-700h-500zM72 24h452v652h-452v-652z" />
    <glyph glyph-name="uni0202" unicode="&#x202;" 
d="M48 0v700h500v-700h-500zM72 24h452v652h-452v-652z" />
    <glyph glyph-name="uni0203" unicode="&#x203;" 
d="M48 0v700h500v-700h-500zM72 24h452v652h-452v-652z" />
    <glyph glyph-name="uni0204" unicode="&#x204;" 
d="M48 0v700h500v-700h-500zM72 24h452v652h-452v-652z" />
    <glyph glyph-name="uni0205" unicode="&#x205;" 
d="M48 0v700h500v-700h-500zM72 24h452v652h-452v-652z" />
    <glyph glyph-name="uni0206" unicode="&#x206;" 
d="M48 0v700h500v-700h-500zM72 24h452v652h-452v-652z" />
    <glyph glyph-name="uni0207" unicode="&#x207;" 
d="M48 0v700h500v-700h-500zM72 24h452v652h-452v-652z" />
    <glyph glyph-name="uni0208" unicode="&#x208;" 
d="M48 0v700h500v-700h-500zM72 24h452v652h-452v-652z" />
    <glyph glyph-name="uni0209" unicode="&#x209;" 
d="M48 0v700h500v-700h-500zM72 24h452v652h-452v-652z" />
    <glyph glyph-name="uni020A" unicode="&#x20a;" 
d="M48 0v700h500v-700h-500zM72 24h452v652h-452v-652z" />
    <glyph glyph-name="uni020B" unicode="&#x20b;" 
d="M48 0v700h500v-700h-500zM72 24h452v652h-452v-652z" />
    <glyph glyph-name="uni020C" unicode="&#x20c;" 
d="M48 0v700h500v-700h-500zM72 24h452v652h-452v-652z" />
    <glyph glyph-name="uni020D" unicode="&#x20d;" 
d="M48 0v700h500v-700h-500zM72 24h452v652h-452v-652z" />
    <glyph glyph-name="uni020E" unicode="&#x20e;" 
d="M48 0v700h500v-700h-500zM72 24h452v652h-452v-652z" />
    <glyph glyph-name="uni020F" unicode="&#x20f;" 
d="M48 0v700h500v-700h-500zM72 24h452v652h-452v-652z" />
    <glyph glyph-name="uni0210" unicode="&#x210;" 
d="M48 0v700h500v-700h-500zM72 24h452v652h-452v-652z" />
    <glyph glyph-name="uni0211" unicode="&#x211;" 
d="M48 0v700h500v-700h-500zM72 24h452v652h-452v-652z" />
    <glyph glyph-name="uni0212" unicode="&#x212;" 
d="M48 0v700h500v-700h-500zM72 24h452v652h-452v-652z" />
    <glyph glyph-name="uni0213" unicode="&#x213;" 
d="M48 0v700h500v-700h-500zM72 24h452v652h-452v-652z" />
    <glyph glyph-name="uni0214" unicode="&#x214;" 
d="M48 0v700h500v-700h-500zM72 24h452v652h-452v-652z" />
    <glyph glyph-name="uni0215" unicode="&#x215;" 
d="M48 0v700h500v-700h-500zM72 24h452v652h-452v-652z" />
    <glyph glyph-name="uni0216" unicode="&#x216;" 
d="M48 0v700h500v-700h-500zM72 24h452v652h-452v-652z" />
    <glyph glyph-name="uni0217" unicode="&#x217;" 
d="M48 0v700h500v-700h-500zM72 24h452v652h-452v-652z" />
    <glyph glyph-name="uni0218" unicode="&#x218;" 
d="M48 0v700h500v-700h-500zM72 24h452v652h-452v-652z" />
    <glyph glyph-name="uni0219" unicode="&#x219;" 
d="M48 0v700h500v-700h-500zM72 24h452v652h-452v-652z" />
    <glyph glyph-name="uni021A" unicode="&#x21a;" 
d="M48 0v700h500v-700h-500zM72 24h452v652h-452v-652z" />
    <glyph glyph-name="uni021B" unicode="&#x21b;" 
d="M48 0v700h500v-700h-500zM72 24h452v652h-452v-652z" />
    <glyph glyph-name="uni021E" unicode="&#x21e;" 
d="M48 0v700h500v-700h-500zM72 24h452v652h-452v-652z" />
    <glyph glyph-name="uni021F" unicode="&#x21f;" 
d="M48 0v700h500v-700h-500zM72 24h452v652h-452v-652z" />
    <glyph glyph-name="uni0226" unicode="&#x226;" 
d="M48 0v700h500v-700h-500zM72 24h452v652h-452v-652z" />
    <glyph glyph-name="uni0227" unicode="&#x227;" 
d="M48 0v700h500v-700h-500zM72 24h452v652h-452v-652z" />
    <glyph glyph-name="uni0228" unicode="&#x228;" 
d="M48 0v700h500v-700h-500zM72 24h452v652h-452v-652z" />
    <glyph glyph-name="uni0229" unicode="&#x229;" 
d="M48 0v700h500v-700h-500zM72 24h452v652h-452v-652z" />
    <glyph glyph-name="uni022A" unicode="&#x22a;" 
d="M48 0v700h500v-700h-500zM72 24h452v652h-452v-652z" />
    <glyph glyph-name="uni022B" unicode="&#x22b;" 
d="M48 0v700h500v-700h-500zM72 24h452v652h-452v-652z" />
    <glyph glyph-name="uni022C" unicode="&#x22c;" 
d="M48 0v700h500v-700h-500zM72 24h452v652h-452v-652z" />
    <glyph glyph-name="uni022D" unicode="&#x22d;" 
d="M48 0v700h500v-700h-500zM72 24h452v652h-452v-652z" />
    <glyph glyph-name="uni022E" unicode="&#x22e;" 
d="M48 0v700h500v-700h-500zM72 24h452v652h-452v-652z" />
    <glyph glyph-name="uni022F" unicode="&#x22f;" 
d="M48 0v700h500v-700h-500zM72 24h452v652h-452v-652z" />
    <glyph glyph-name="uni0230" unicode="&#x230;" 
d="M48 0v700h500v-700h-500zM72 24h452v652h-452v-652z" />
    <glyph glyph-name="uni0231" unicode="&#x231;" 
d="M48 0v700h500v-700h-500zM72 24h452v652h-452v-652z" />
    <glyph glyph-name="uni0232" unicode="&#x232;" 
d="M48 0v700h500v-700h-500zM72 24h452v652h-452v-652z" />
    <glyph glyph-name="uni0233" unicode="&#x233;" 
d="M48 0v700h500v-700h-500zM72 24h452v652h-452v-652z" />
    <glyph glyph-name="uni02B9" unicode="&#x2b9;" 
d="M48 0v700h500v-700h-500zM72 24h452v652h-452v-652z" />
    <glyph glyph-name="uni02BA" unicode="&#x2ba;" 
d="M48 0v700h500v-700h-500zM72 24h452v652h-452v-652z" />
    <glyph glyph-name="uni02BB" unicode="&#x2bb;" 
d="M48 0v700h500v-700h-500zM72 24h452v652h-452v-652z" />
    <glyph glyph-name="uni02BC" unicode="&#x2bc;" 
d="M48 0v700h500v-700h-500zM72 24h452v652h-452v-652z" />
    <glyph glyph-name="uni02BD" unicode="&#x2bd;" 
d="M48 0v700h500v-700h-500zM72 24h452v652h-452v-652z" />
    <glyph glyph-name="circumflex" unicode="&#x2c6;" 
d="M48 0v700h500v-700h-500zM72 24h452v652h-452v-652z" />
    <glyph glyph-name="caron" unicode="&#x2c7;" 
d="M48 0v700h500v-700h-500zM72 24h452v652h-452v-652z" />
    <glyph glyph-name="uni02C9" unicode="&#x2c9;" 
d="M48 0v700h500v-700h-500zM72 24h452v652h-452v-652z" />
    <glyph glyph-name="breve" unicode="&#x2d8;" 
d="M48 0v700h500v-700h-500zM72 24h452v652h-452v-652z" />
    <glyph glyph-name="dotaccent" unicode="&#x2d9;" 
d="M48 0v700h500v-700h-500zM72 24h452v652h-452v-652z" />
    <glyph glyph-name="ring" unicode="&#x2da;" 
d="M48 0v700h500v-700h-500zM72 24h452v652h-452v-652z" />
    <glyph glyph-name="ogonek" unicode="&#x2db;" 
d="M48 0v700h500v-700h-500zM72 24h452v652h-452v-652z" />
    <glyph glyph-name="tilde" unicode="&#x2dc;" 
d="M48 0v700h500v-700h-500zM72 24h452v652h-452v-652z" />
    <glyph glyph-name="hungarumlaut" unicode="&#x2dd;" 
d="M48 0v700h500v-700h-500zM72 24h452v652h-452v-652z" />
    <glyph glyph-name="uni02EE" unicode="&#x2ee;" 
d="M48 0v700h500v-700h-500zM72 24h452v652h-452v-652z" />
    <glyph glyph-name="gravecomb" unicode="&#x300;" 
d="M48 0v700h500v-700h-500zM72 24h452v652h-452v-652z" />
    <glyph glyph-name="acutecomb" unicode="&#x301;" 
d="M48 0v700h500v-700h-500zM72 24h452v652h-452v-652z" />
    <glyph glyph-name="uni0302" unicode="&#x302;" 
d="M48 0v700h500v-700h-500zM72 24h452v652h-452v-652z" />
    <glyph glyph-name="tildecomb" unicode="&#x303;" 
d="M48 0v700h500v-700h-500zM72 24h452v652h-452v-652z" />
    <glyph glyph-name="uni0304" unicode="&#x304;" 
d="M48 0v700h500v-700h-500zM72 24h452v652h-452v-652z" />
    <glyph glyph-name="uni0306" unicode="&#x306;" 
d="M48 0v700h500v-700h-500zM72 24h452v652h-452v-652z" />
    <glyph glyph-name="uni0307" unicode="&#x307;" 
d="M48 0v700h500v-700h-500zM72 24h452v652h-452v-652z" />
    <glyph glyph-name="uni0308" unicode="&#x308;" 
d="M48 0v700h500v-700h-500zM72 24h452v652h-452v-652z" />
    <glyph glyph-name="hookabovecomb" unicode="&#x309;" 
d="M48 0v700h500v-700h-500zM72 24h452v652h-452v-652z" />
    <glyph glyph-name="uni030A" unicode="&#x30a;" 
d="M48 0v700h500v-700h-500zM72 24h452v652h-452v-652z" />
    <glyph glyph-name="uni030B" unicode="&#x30b;" 
d="M48 0v700h500v-700h-500zM72 24h452v652h-452v-652z" />
    <glyph glyph-name="uni030C" unicode="&#x30c;" 
d="M48 0v700h500v-700h-500zM72 24h452v652h-452v-652z" />
    <glyph glyph-name="uni030D" unicode="&#x30d;" 
d="M48 0v700h500v-700h-500zM72 24h452v652h-452v-652z" />
    <glyph glyph-name="uni030E" unicode="&#x30e;" 
d="M48 0v700h500v-700h-500zM72 24h452v652h-452v-652z" />
    <glyph glyph-name="uni030F" unicode="&#x30f;" 
d="M48 0v700h500v-700h-500zM72 24h452v652h-452v-652z" />
    <glyph glyph-name="uni0311" unicode="&#x311;" 
d="M48 0v700h500v-700h-500zM72 24h452v652h-452v-652z" />
    <glyph glyph-name="uni0312" unicode="&#x312;" 
d="M48 0v700h500v-700h-500zM72 24h452v652h-452v-652z" />
    <glyph glyph-name="uni0313" unicode="&#x313;" 
d="M48 0v700h500v-700h-500zM72 24h452v652h-452v-652z" />
    <glyph glyph-name="uni0314" unicode="&#x314;" 
d="M48 0v700h500v-700h-500zM72 24h452v652h-452v-652z" />
    <glyph glyph-name="uni0316" unicode="&#x316;" 
d="M48 0v700h500v-700h-500zM72 24h452v652h-452v-652z" />
    <glyph glyph-name="uni0317" unicode="&#x317;" 
d="M48 0v700h500v-700h-500zM72 24h452v652h-452v-652z" />
    <glyph glyph-name="uni031B" unicode="&#x31b;" 
d="M48 0v700h500v-700h-500zM72 24h452v652h-452v-652z" />
    <glyph glyph-name="dotbelowcomb" unicode="&#x323;" 
d="M48 0v700h500v-700h-500zM72 24h452v652h-452v-652z" />
    <glyph glyph-name="uni0324" unicode="&#x324;" 
d="M48 0v700h500v-700h-500zM72 24h452v652h-452v-652z" />
    <glyph glyph-name="uni0325" unicode="&#x325;" 
d="M48 0v700h500v-700h-500zM72 24h452v652h-452v-652z" />
    <glyph glyph-name="uni0326" unicode="&#x326;" 
d="M48 0v700h500v-700h-500zM72 24h452v652h-452v-652z" />
    <glyph glyph-name="uni0327" unicode="&#x327;" 
d="M48 0v700h500v-700h-500zM72 24h452v652h-452v-652z" />
    <glyph glyph-name="uni0328" unicode="&#x328;" 
d="M48 0v700h500v-700h-500zM72 24h452v652h-452v-652z" />
    <glyph glyph-name="uni0329" unicode="&#x329;" 
d="M48 0v700h500v-700h-500zM72 24h452v652h-452v-652z" />
    <glyph glyph-name="uni032C" unicode="&#x32c;" 
d="M48 0v700h500v-700h-500zM72 24h452v652h-452v-652z" />
    <glyph glyph-name="uni032D" unicode="&#x32d;" 
d="M48 0v700h500v-700h-500zM72 24h452v652h-452v-652z" />
    <glyph glyph-name="uni032E" unicode="&#x32e;" 
d="M48 0v700h500v-700h-500zM72 24h452v652h-452v-652z" />
    <glyph glyph-name="uni032F" unicode="&#x32f;" 
d="M48 0v700h500v-700h-500zM72 24h452v652h-452v-652z" />
    <glyph glyph-name="uni0330" unicode="&#x330;" 
d="M48 0v700h500v-700h-500zM72 24h452v652h-452v-652z" />
    <glyph glyph-name="uni0331" unicode="&#x331;" 
d="M48 0v700h500v-700h-500zM72 24h452v652h-452v-652z" />
    <glyph glyph-name="uni0340" unicode="&#x340;" 
d="M48 0v700h500v-700h-500zM72 24h452v652h-452v-652z" />
    <glyph glyph-name="uni0341" unicode="&#x341;" 
d="M48 0v700h500v-700h-500zM72 24h452v652h-452v-652z" />
    <glyph glyph-name="uni0342" unicode="&#x342;" 
d="M48 0v700h500v-700h-500zM72 24h452v652h-452v-652z" />
    <glyph glyph-name="uni0343" unicode="&#x343;" 
d="M48 0v700h500v-700h-500zM72 24h452v652h-452v-652z" />
    <glyph glyph-name="uni0344" unicode="&#x344;" 
d="M48 0v700h500v-700h-500zM72 24h452v652h-452v-652z" />
    <glyph glyph-name="uni0345" unicode="&#x345;" 
d="M48 0v700h500v-700h-500zM72 24h452v652h-452v-652z" />
    <glyph glyph-name="uni034F" unicode="&#x34f;" 
d="M48 0v700h500v-700h-500zM72 24h452v652h-452v-652z" />
    <glyph glyph-name="uni0351" unicode="&#x351;" 
d="M48 0v700h500v-700h-500zM72 24h452v652h-452v-652z" />
    <glyph glyph-name="uni0357" unicode="&#x357;" 
d="M48 0v700h500v-700h-500zM72 24h452v652h-452v-652z" />
    <glyph glyph-name="uni0374" unicode="&#x374;" 
d="M48 0v700h500v-700h-500zM72 24h452v652h-452v-652z" />
    <glyph glyph-name="uni037E" unicode="&#x37e;" 
d="M48 0v700h500v-700h-500zM72 24h452v652h-452v-652z" />
    <glyph glyph-name="tonos" unicode="&#x384;" 
d="M48 0v700h500v-700h-500zM72 24h452v652h-452v-652z" />
    <glyph glyph-name="dieresistonos" unicode="&#x385;" 
d="M48 0v700h500v-700h-500zM72 24h452v652h-452v-652z" />
    <glyph glyph-name="Alphatonos" unicode="&#x386;" 
d="M48 0v700h500v-700h-500zM72 24h452v652h-452v-652z" />
    <glyph glyph-name="anoteleia" unicode="&#x387;" 
d="M48 0v700h500v-700h-500zM72 24h452v652h-452v-652z" />
    <glyph glyph-name="Epsilontonos" unicode="&#x388;" 
d="M48 0v700h500v-700h-500zM72 24h452v652h-452v-652z" />
    <glyph glyph-name="Etatonos" unicode="&#x389;" 
d="M48 0v700h500v-700h-500zM72 24h452v652h-452v-652z" />
    <glyph glyph-name="Iotatonos" unicode="&#x38a;" 
d="M48 0v700h500v-700h-500zM72 24h452v652h-452v-652z" />
    <glyph glyph-name="Omicrontonos" unicode="&#x38c;" 
d="M48 0v700h500v-700h-500zM72 24h452v652h-452v-652z" />
    <glyph glyph-name="Upsilontonos" unicode="&#x38e;" 
d="M48 0v700h500v-700h-500zM72 24h452v652h-452v-652z" />
    <glyph glyph-name="Omegatonos" unicode="&#x38f;" 
d="M48 0v700h500v-700h-500zM72 24h452v652h-452v-652z" />
    <glyph glyph-name="iotadieresistonos" unicode="&#x390;" 
d="M48 0v700h500v-700h-500zM72 24h452v652h-452v-652z" />
    <glyph glyph-name="Alpha" unicode="&#x391;" 
d="M48 0v700h500v-700h-500zM72 24h452v652h-452v-652z" />
    <glyph glyph-name="Beta" unicode="&#x392;" 
d="M48 0v700h500v-700h-500zM72 24h452v652h-452v-652z" />
    <glyph glyph-name="Gamma" unicode="&#x393;" 
d="M48 0v700h500v-700h-500zM72 24h452v652h-452v-652z" />
    <glyph glyph-name="uni0394" unicode="&#x394;" 
d="M48 0v700h500v-700h-500zM72 24h452v652h-452v-652z" />
    <glyph glyph-name="Epsilon" unicode="&#x395;" 
d="M48 0v700h500v-700h-500zM72 24h452v652h-452v-652z" />
    <glyph glyph-name="Zeta" unicode="&#x396;" 
d="M48 0v700h500v-700h-500zM72 24h452v652h-452v-652z" />
    <glyph glyph-name="Eta" unicode="&#x397;" 
d="M48 0v700h500v-700h-500zM72 24h452v652h-452v-652z" />
    <glyph glyph-name="Theta" unicode="&#x398;" 
d="M48 0v700h500v-700h-500zM72 24h452v652h-452v-652z" />
    <glyph glyph-name="Iota" unicode="&#x399;" 
d="M48 0v700h500v-700h-500zM72 24h452v652h-452v-652z" />
    <glyph glyph-name="Kappa" unicode="&#x39a;" 
d="M48 0v700h500v-700h-500zM72 24h452v652h-452v-652z" />
    <glyph glyph-name="Lambda" unicode="&#x39b;" 
d="M48 0v700h500v-700h-500zM72 24h452v652h-452v-652z" />
    <glyph glyph-name="Mu" unicode="&#x39c;" 
d="M48 0v700h500v-700h-500zM72 24h452v652h-452v-652z" />
    <glyph glyph-name="Nu" unicode="&#x39d;" 
d="M48 0v700h500v-700h-500zM72 24h452v652h-452v-652z" />
    <glyph glyph-name="Xi" unicode="&#x39e;" 
d="M48 0v700h500v-700h-500zM72 24h452v652h-452v-652z" />
    <glyph glyph-name="Omicron" unicode="&#x39f;" 
d="M48 0v700h500v-700h-500zM72 24h452v652h-452v-652z" />
    <glyph glyph-name="Pi" unicode="&#x3a0;" 
d="M48 0v700h500v-700h-500zM72 24h452v652h-452v-652z" />
    <glyph glyph-name="Rho" unicode="&#x3a1;" 
d="M48 0v700h500v-700h-500zM72 24h452v652h-452v-652z" />
    <glyph glyph-name="Sigma" unicode="&#x3a3;" 
d="M48 0v700h500v-700h-500zM72 24h452v652h-452v-652z" />
    <glyph glyph-name="Tau" unicode="&#x3a4;" 
d="M48 0v700h500v-700h-500zM72 24h452v652h-452v-652z" />
    <glyph glyph-name="Upsilon" unicode="&#x3a5;" 
d="M48 0v700h500v-700h-500zM72 24h452v652h-452v-652z" />
    <glyph glyph-name="Phi" unicode="&#x3a6;" 
d="M48 0v700h500v-700h-500zM72 24h452v652h-452v-652z" />
    <glyph glyph-name="Chi" unicode="&#x3a7;" 
d="M48 0v700h500v-700h-500zM72 24h452v652h-452v-652z" />
    <glyph glyph-name="Psi" unicode="&#x3a8;" 
d="M48 0v700h500v-700h-500zM72 24h452v652h-452v-652z" />
    <glyph glyph-name="uni03A9" unicode="&#x3a9;" 
d="M48 0v700h500v-700h-500zM72 24h452v652h-452v-652z" />
    <glyph glyph-name="Iotadieresis" unicode="&#x3aa;" 
d="M48 0v700h500v-700h-500zM72 24h452v652h-452v-652z" />
    <glyph glyph-name="Upsilondieresis" unicode="&#x3ab;" 
d="M48 0v700h500v-700h-500zM72 24h452v652h-452v-652z" />
    <glyph glyph-name="alphatonos" unicode="&#x3ac;" 
d="M48 0v700h500v-700h-500zM72 24h452v652h-452v-652z" />
    <glyph glyph-name="epsilontonos" unicode="&#x3ad;" 
d="M48 0v700h500v-700h-500zM72 24h452v652h-452v-652z" />
    <glyph glyph-name="etatonos" unicode="&#x3ae;" 
d="M48 0v700h500v-700h-500zM72 24h452v652h-452v-652z" />
    <glyph glyph-name="iotatonos" unicode="&#x3af;" 
d="M48 0v700h500v-700h-500zM72 24h452v652h-452v-652z" />
    <glyph glyph-name="upsilondieresistonos" unicode="&#x3b0;" 
d="M48 0v700h500v-700h-500zM72 24h452v652h-452v-652z" />
    <glyph glyph-name="alpha" unicode="&#x3b1;" 
d="M48 0v700h500v-700h-500zM72 24h452v652h-452v-652z" />
    <glyph glyph-name="beta" unicode="&#x3b2;" 
d="M48 0v700h500v-700h-500zM72 24h452v652h-452v-652z" />
    <glyph glyph-name="gamma" unicode="&#x3b3;" 
d="M48 0v700h500v-700h-500zM72 24h452v652h-452v-652z" />
    <glyph glyph-name="delta" unicode="&#x3b4;" 
d="M48 0v700h500v-700h-500zM72 24h452v652h-452v-652z" />
    <glyph glyph-name="epsilon" unicode="&#x3b5;" 
d="M48 0v700h500v-700h-500zM72 24h452v652h-452v-652z" />
    <glyph glyph-name="zeta" unicode="&#x3b6;" 
d="M48 0v700h500v-700h-500zM72 24h452v652h-452v-652z" />
    <glyph glyph-name="eta" unicode="&#x3b7;" 
d="M48 0v700h500v-700h-500zM72 24h452v652h-452v-652z" />
    <glyph glyph-name="theta" unicode="&#x3b8;" 
d="M48 0v700h500v-700h-500zM72 24h452v652h-452v-652z" />
    <glyph glyph-name="iota" unicode="&#x3b9;" 
d="M48 0v700h500v-700h-500zM72 24h452v652h-452v-652z" />
    <glyph glyph-name="kappa" unicode="&#x3ba;" 
d="M48 0v700h500v-700h-500zM72 24h452v652h-452v-652z" />
    <glyph glyph-name="lambda" unicode="&#x3bb;" 
d="M48 0v700h500v-700h-500zM72 24h452v652h-452v-652z" />
    <glyph glyph-name="uni03BC" unicode="&#x3bc;" 
d="M48 0v700h500v-700h-500zM72 24h452v652h-452v-652z" />
    <glyph glyph-name="nu" unicode="&#x3bd;" 
d="M48 0v700h500v-700h-500zM72 24h452v652h-452v-652z" />
    <glyph glyph-name="xi" unicode="&#x3be;" 
d="M48 0v700h500v-700h-500zM72 24h452v652h-452v-652z" />
    <glyph glyph-name="omicron" unicode="&#x3bf;" 
d="M48 0v700h500v-700h-500zM72 24h452v652h-452v-652z" />
    <glyph glyph-name="pi" unicode="&#x3c0;" 
d="M48 0v700h500v-700h-500zM72 24h452v652h-452v-652z" />
    <glyph glyph-name="rho" unicode="&#x3c1;" 
d="M48 0v700h500v-700h-500zM72 24h452v652h-452v-652z" />
    <glyph glyph-name="sigma1" unicode="&#x3c2;" 
d="M48 0v700h500v-700h-500zM72 24h452v652h-452v-652z" />
    <glyph glyph-name="sigma" unicode="&#x3c3;" 
d="M48 0v700h500v-700h-500zM72 24h452v652h-452v-652z" />
    <glyph glyph-name="tau" unicode="&#x3c4;" 
d="M48 0v700h500v-700h-500zM72 24h452v652h-452v-652z" />
    <glyph glyph-name="upsilon" unicode="&#x3c5;" 
d="M48 0v700h500v-700h-500zM72 24h452v652h-452v-652z" />
    <glyph glyph-name="phi" unicode="&#x3c6;" 
d="M48 0v700h500v-700h-500zM72 24h452v652h-452v-652z" />
    <glyph glyph-name="chi" unicode="&#x3c7;" 
d="M48 0v700h500v-700h-500zM72 24h452v652h-452v-652z" />
    <glyph glyph-name="psi" unicode="&#x3c8;" 
d="M48 0v700h500v-700h-500zM72 24h452v652h-452v-652z" />
    <glyph glyph-name="omega" unicode="&#x3c9;" 
d="M48 0v700h500v-700h-500zM72 24h452v652h-452v-652z" />
    <glyph glyph-name="iotadieresis" unicode="&#x3ca;" 
d="M48 0v700h500v-700h-500zM72 24h452v652h-452v-652z" />
    <glyph glyph-name="upsilondieresis" unicode="&#x3cb;" 
d="M48 0v700h500v-700h-500zM72 24h452v652h-452v-652z" />
    <glyph glyph-name="omicrontonos" unicode="&#x3cc;" 
d="M48 0v700h500v-700h-500zM72 24h452v652h-452v-652z" />
    <glyph glyph-name="upsilontonos" unicode="&#x3cd;" 
d="M48 0v700h500v-700h-500zM72 24h452v652h-452v-652z" />
    <glyph glyph-name="omegatonos" unicode="&#x3ce;" 
d="M48 0v700h500v-700h-500zM72 24h452v652h-452v-652z" />
    <glyph glyph-name="uni0400" unicode="&#x400;" 
d="M48 0v700h500v-700h-500zM72 24h452v652h-452v-652z" />
    <glyph glyph-name="uni0401" unicode="&#x401;" 
d="M48 0v700h500v-700h-500zM72 24h452v652h-452v-652z" />
    <glyph glyph-name="uni0402" unicode="&#x402;" 
d="M48 0v700h500v-700h-500zM72 24h452v652h-452v-652z" />
    <glyph glyph-name="uni0403" unicode="&#x403;" 
d="M48 0v700h500v-700h-500zM72 24h452v652h-452v-652z" />
    <glyph glyph-name="uni0404" unicode="&#x404;" 
d="M48 0v700h500v-700h-500zM72 24h452v652h-452v-652z" />
    <glyph glyph-name="uni0405" unicode="&#x405;" 
d="M48 0v700h500v-700h-500zM72 24h452v652h-452v-652z" />
    <glyph glyph-name="uni0406" unicode="&#x406;" 
d="M48 0v700h500v-700h-500zM72 24h452v652h-452v-652z" />
    <glyph glyph-name="uni0407" unicode="&#x407;" 
d="M48 0v700h500v-700h-500zM72 24h452v652h-452v-652z" />
    <glyph glyph-name="uni0408" unicode="&#x408;" 
d="M48 0v700h500v-700h-500zM72 24h452v652h-452v-652z" />
    <glyph glyph-name="uni0409" unicode="&#x409;" 
d="M48 0v700h500v-700h-500zM72 24h452v652h-452v-652z" />
    <glyph glyph-name="uni040A" unicode="&#x40a;" 
d="M48 0v700h500v-700h-500zM72 24h452v652h-452v-652z" />
    <glyph glyph-name="uni040B" unicode="&#x40b;" 
d="M48 0v700h500v-700h-500zM72 24h452v652h-452v-652z" />
    <glyph glyph-name="uni040C" unicode="&#x40c;" 
d="M48 0v700h500v-700h-500zM72 24h452v652h-452v-652z" />
    <glyph glyph-name="uni040D" unicode="&#x40d;" 
d="M48 0v700h500v-700h-500zM72 24h452v652h-452v-652z" />
    <glyph glyph-name="uni040E" unicode="&#x40e;" 
d="M48 0v700h500v-700h-500zM72 24h452v652h-452v-652z" />
    <glyph glyph-name="uni040F" unicode="&#x40f;" 
d="M48 0v700h500v-700h-500zM72 24h452v652h-452v-652z" />
    <glyph glyph-name="uni0410" unicode="&#x410;" 
d="M48 0v700h500v-700h-500zM72 24h452v652h-452v-652z" />
    <glyph glyph-name="uni0411" unicode="&#x411;" 
d="M48 0v700h500v-700h-500zM72 24h452v652h-452v-652z" />
    <glyph glyph-name="uni0412" unicode="&#x412;" 
d="M48 0v700h500v-700h-500zM72 24h452v652h-452v-652z" />
    <glyph glyph-name="uni0413" unicode="&#x413;" 
d="M48 0v700h500v-700h-500zM72 24h452v652h-452v-652z" />
    <glyph glyph-name="uni0414" unicode="&#x414;" 
d="M48 0v700h500v-700h-500zM72 24h452v652h-452v-652z" />
    <glyph glyph-name="uni0415" unicode="&#x415;" 
d="M48 0v700h500v-700h-500zM72 24h452v652h-452v-652z" />
    <glyph glyph-name="uni0416" unicode="&#x416;" 
d="M48 0v700h500v-700h-500zM72 24h452v652h-452v-652z" />
    <glyph glyph-name="uni0417" unicode="&#x417;" 
d="M48 0v700h500v-700h-500zM72 24h452v652h-452v-652z" />
    <glyph glyph-name="uni0418" unicode="&#x418;" 
d="M48 0v700h500v-700h-500zM72 24h452v652h-452v-652z" />
    <glyph glyph-name="uni0419" unicode="&#x419;" 
d="M48 0v700h500v-700h-500zM72 24h452v652h-452v-652z" />
    <glyph glyph-name="uni041A" unicode="&#x41a;" 
d="M48 0v700h500v-700h-500zM72 24h452v652h-452v-652z" />
    <glyph glyph-name="uni041B" unicode="&#x41b;" 
d="M48 0v700h500v-700h-500zM72 24h452v652h-452v-652z" />
    <glyph glyph-name="uni041C" unicode="&#x41c;" 
d="M48 0v700h500v-700h-500zM72 24h452v652h-452v-652z" />
    <glyph glyph-name="uni041D" unicode="&#x41d;" 
d="M48 0v700h500v-700h-500zM72 24h452v652h-452v-652z" />
    <glyph glyph-name="uni041E" unicode="&#x41e;" 
d="M48 0v700h500v-700h-500zM72 24h452v652h-452v-652z" />
    <glyph glyph-name="uni041F" unicode="&#x41f;" 
d="M48 0v700h500v-700h-500zM72 24h452v652h-452v-652z" />
    <glyph glyph-name="uni0420" unicode="&#x420;" 
d="M48 0v700h500v-700h-500zM72 24h452v652h-452v-652z" />
    <glyph glyph-name="uni0421" unicode="&#x421;" 
d="M48 0v700h500v-700h-500zM72 24h452v652h-452v-652z" />
    <glyph glyph-name="uni0422" unicode="&#x422;" 
d="M48 0v700h500v-700h-500zM72 24h452v652h-452v-652z" />
    <glyph glyph-name="uni0423" unicode="&#x423;" 
d="M48 0v700h500v-700h-500zM72 24h452v652h-452v-652z" />
    <glyph glyph-name="uni0424" unicode="&#x424;" 
d="M48 0v700h500v-700h-500zM72 24h452v652h-452v-652z" />
    <glyph glyph-name="uni0425" unicode="&#x425;" 
d="M48 0v700h500v-700h-500zM72 24h452v652h-452v-652z" />
    <glyph glyph-name="uni0426" unicode="&#x426;" 
d="M48 0v700h500v-700h-500zM72 24h452v652h-452v-652z" />
    <glyph glyph-name="uni0427" unicode="&#x427;" 
d="M48 0v700h500v-700h-500zM72 24h452v652h-452v-652z" />
    <glyph glyph-name="uni0428" unicode="&#x428;" 
d="M48 0v700h500v-700h-500zM72 24h452v652h-452v-652z" />
    <glyph glyph-name="uni0429" unicode="&#x429;" 
d="M48 0v700h500v-700h-500zM72 24h452v652h-452v-652z" />
    <glyph glyph-name="uni042A" unicode="&#x42a;" 
d="M48 0v700h500v-700h-500zM72 24h452v652h-452v-652z" />
    <glyph glyph-name="uni042B" unicode="&#x42b;" 
d="M48 0v700h500v-700h-500zM72 24h452v652h-452v-652z" />
    <glyph glyph-name="uni042C" unicode="&#x42c;" 
d="M48 0v700h500v-700h-500zM72 24h452v652h-452v-652z" />
    <glyph glyph-name="uni042D" unicode="&#x42d;" 
d="M48 0v700h500v-700h-500zM72 24h452v652h-452v-652z" />
    <glyph glyph-name="uni042E" unicode="&#x42e;" 
d="M48 0v700h500v-700h-500zM72 24h452v652h-452v-652z" />
    <glyph glyph-name="uni042F" unicode="&#x42f;" 
d="M48 0v700h500v-700h-500zM72 24h452v652h-452v-652z" />
    <glyph glyph-name="uni0430" unicode="&#x430;" 
d="M48 0v700h500v-700h-500zM72 24h452v652h-452v-652z" />
    <glyph glyph-name="uni0431" unicode="&#x431;" 
d="M48 0v700h500v-700h-500zM72 24h452v652h-452v-652z" />
    <glyph glyph-name="uni0432" unicode="&#x432;" 
d="M48 0v700h500v-700h-500zM72 24h452v652h-452v-652z" />
    <glyph glyph-name="uni0433" unicode="&#x433;" 
d="M48 0v700h500v-700h-500zM72 24h452v652h-452v-652z" />
    <glyph glyph-name="uni0434" unicode="&#x434;" 
d="M48 0v700h500v-700h-500zM72 24h452v652h-452v-652z" />
    <glyph glyph-name="uni0435" unicode="&#x435;" 
d="M48 0v700h500v-700h-500zM72 24h452v652h-452v-652z" />
    <glyph glyph-name="uni0436" unicode="&#x436;" 
d="M48 0v700h500v-700h-500zM72 24h452v652h-452v-652z" />
    <glyph glyph-name="uni0437" unicode="&#x437;" 
d="M48 0v700h500v-700h-500zM72 24h452v652h-452v-652z" />
    <glyph glyph-name="uni0438" unicode="&#x438;" 
d="M48 0v700h500v-700h-500zM72 24h452v652h-452v-652z" />
    <glyph glyph-name="uni0439" unicode="&#x439;" 
d="M48 0v700h500v-700h-500zM72 24h452v652h-452v-652z" />
    <glyph glyph-name="uni043A" unicode="&#x43a;" 
d="M48 0v700h500v-700h-500zM72 24h452v652h-452v-652z" />
    <glyph glyph-name="uni043B" unicode="&#x43b;" 
d="M48 0v700h500v-700h-500zM72 24h452v652h-452v-652z" />
    <glyph glyph-name="uni043C" unicode="&#x43c;" 
d="M48 0v700h500v-700h-500zM72 24h452v652h-452v-652z" />
    <glyph glyph-name="uni043D" unicode="&#x43d;" 
d="M48 0v700h500v-700h-500zM72 24h452v652h-452v-652z" />
    <glyph glyph-name="uni043E" unicode="&#x43e;" 
d="M48 0v700h500v-700h-500zM72 24h452v652h-452v-652z" />
    <glyph glyph-name="uni043F" unicode="&#x43f;" 
d="M48 0v700h500v-700h-500zM72 24h452v652h-452v-652z" />
    <glyph glyph-name="uni0440" unicode="&#x440;" 
d="M48 0v700h500v-700h-500zM72 24h452v652h-452v-652z" />
    <glyph glyph-name="uni0441" unicode="&#x441;" 
d="M48 0v700h500v-700h-500zM72 24h452v652h-452v-652z" />
    <glyph glyph-name="uni0442" unicode="&#x442;" 
d="M48 0v700h500v-700h-500zM72 24h452v652h-452v-652z" />
    <glyph glyph-name="uni0443" unicode="&#x443;" 
d="M48 0v700h500v-700h-500zM72 24h452v652h-452v-652z" />
    <glyph glyph-name="uni0444" unicode="&#x444;" 
d="M48 0v700h500v-700h-500zM72 24h452v652h-452v-652z" />
    <glyph glyph-name="uni0445" unicode="&#x445;" 
d="M48 0v700h500v-700h-500zM72 24h452v652h-452v-652z" />
    <glyph glyph-name="uni0446" unicode="&#x446;" 
d="M48 0v700h500v-700h-500zM72 24h452v652h-452v-652z" />
    <glyph glyph-name="uni0447" unicode="&#x447;" 
d="M48 0v700h500v-700h-500zM72 24h452v652h-452v-652z" />
    <glyph glyph-name="uni0448" unicode="&#x448;" 
d="M48 0v700h500v-700h-500zM72 24h452v652h-452v-652z" />
    <glyph glyph-name="uni0449" unicode="&#x449;" 
d="M48 0v700h500v-700h-500zM72 24h452v652h-452v-652z" />
    <glyph glyph-name="uni044A" unicode="&#x44a;" 
d="M48 0v700h500v-700h-500zM72 24h452v652h-452v-652z" />
    <glyph glyph-name="uni044B" unicode="&#x44b;" 
d="M48 0v700h500v-700h-500zM72 24h452v652h-452v-652z" />
    <glyph glyph-name="uni044C" unicode="&#x44c;" 
d="M48 0v700h500v-700h-500zM72 24h452v652h-452v-652z" />
    <glyph glyph-name="uni044D" unicode="&#x44d;" 
d="M48 0v700h500v-700h-500zM72 24h452v652h-452v-652z" />
    <glyph glyph-name="uni044E" unicode="&#x44e;" 
d="M48 0v700h500v-700h-500zM72 24h452v652h-452v-652z" />
    <glyph glyph-name="uni044F" unicode="&#x44f;" 
d="M48 0v700h500v-700h-500zM72 24h452v652h-452v-652z" />
    <glyph glyph-name="uni0450" unicode="&#x450;" 
d="M48 0v700h500v-700h-500zM72 24h452v652h-452v-652z" />
    <glyph glyph-name="uni0451" unicode="&#x451;" 
d="M48 0v700h500v-700h-500zM72 24h452v652h-452v-652z" />
    <glyph glyph-name="uni0452" unicode="&#x452;" 
d="M48 0v700h500v-700h-500zM72 24h452v652h-452v-652z" />
    <glyph glyph-name="uni0453" unicode="&#x453;" 
d="M48 0v700h500v-700h-500zM72 24h452v652h-452v-652z" />
    <glyph glyph-name="uni0454" unicode="&#x454;" 
d="M48 0v700h500v-700h-500zM72 24h452v652h-452v-652z" />
    <glyph glyph-name="uni0455" unicode="&#x455;" 
d="M48 0v700h500v-700h-500zM72 24h452v652h-452v-652z" />
    <glyph glyph-name="uni0456" unicode="&#x456;" 
d="M48 0v700h500v-700h-500zM72 24h452v652h-452v-652z" />
    <glyph glyph-name="uni0457" unicode="&#x457;" 
d="M48 0v700h500v-700h-500zM72 24h452v652h-452v-652z" />
    <glyph glyph-name="uni0458" unicode="&#x458;" 
d="M48 0v700h500v-700h-500zM72 24h452v652h-452v-652z" />
    <glyph glyph-name="uni0459" unicode="&#x459;" 
d="M48 0v700h500v-700h-500zM72 24h452v652h-452v-652z" />
    <glyph glyph-name="uni045A" unicode="&#x45a;" 
d="M48 0v700h500v-700h-500zM72 24h452v652h-452v-652z" />
    <glyph glyph-name="uni045B" unicode="&#x45b;" 
d="M48 0v700h500v-700h-500zM72 24h452v652h-452v-652z" />
    <glyph glyph-name="uni045C" unicode="&#x45c;" 
d="M48 0v700h500v-700h-500zM72 24h452v652h-452v-652z" />
    <glyph glyph-name="uni045D" unicode="&#x45d;" 
d="M48 0v700h500v-700h-500zM72 24h452v652h-452v-652z" />
    <glyph glyph-name="uni045E" unicode="&#x45e;" 
d="M48 0v700h500v-700h-500zM72 24h452v652h-452v-652z" />
    <glyph glyph-name="uni045F" unicode="&#x45f;" 
d="M48 0v700h500v-700h-500zM72 24h452v652h-452v-652z" />
    <glyph glyph-name="uni0490" unicode="&#x490;" 
d="M48 0v700h500v-700h-500zM72 24h452v652h-452v-652z" />
    <glyph glyph-name="uni0491" unicode="&#x491;" 
d="M48 0v700h500v-700h-500zM72 24h452v652h-452v-652z" />
    <glyph glyph-name="uni04C0" unicode="&#x4c0;" 
d="M48 0v700h500v-700h-500zM72 24h452v652h-452v-652z" />
    <glyph glyph-name="uni04C1" unicode="&#x4c1;" 
d="M48 0v700h500v-700h-500zM72 24h452v652h-452v-652z" />
    <glyph glyph-name="uni04C2" unicode="&#x4c2;" 
d="M48 0v700h500v-700h-500zM72 24h452v652h-452v-652z" />
    <glyph glyph-name="uni04D0" unicode="&#x4d0;" 
d="M48 0v700h500v-700h-500zM72 24h452v652h-452v-652z" />
    <glyph glyph-name="uni04D1" unicode="&#x4d1;" 
d="M48 0v700h500v-700h-500zM72 24h452v652h-452v-652z" />
    <glyph glyph-name="uni04D2" unicode="&#x4d2;" 
d="M48 0v700h500v-700h-500zM72 24h452v652h-452v-652z" />
    <glyph glyph-name="uni04D3" unicode="&#x4d3;" 
d="M48 0v700h500v-700h-500zM72 24h452v652h-452v-652z" />
    <glyph glyph-name="uni04D4" unicode="&#x4d4;" 
d="M48 0v700h500v-700h-500zM72 24h452v652h-452v-652z" />
    <glyph glyph-name="uni04D5" unicode="&#x4d5;" 
d="M48 0v700h500v-700h-500zM72 24h452v652h-452v-652z" />
    <glyph glyph-name="uni04D6" unicode="&#x4d6;" 
d="M48 0v700h500v-700h-500zM72 24h452v652h-452v-652z" />
    <glyph glyph-name="uni04D7" unicode="&#x4d7;" 
d="M48 0v700h500v-700h-500zM72 24h452v652h-452v-652z" />
    <glyph glyph-name="uni04DC" unicode="&#x4dc;" 
d="M48 0v700h500v-700h-500zM72 24h452v652h-452v-652z" />
    <glyph glyph-name="uni04DD" unicode="&#x4dd;" 
d="M48 0v700h500v-700h-500zM72 24h452v652h-452v-652z" />
    <glyph glyph-name="uni04DE" unicode="&#x4de;" 
d="M48 0v700h500v-700h-500zM72 24h452v652h-452v-652z" />
    <glyph glyph-name="uni04DF" unicode="&#x4df;" 
d="M48 0v700h500v-700h-500zM72 24h452v652h-452v-652z" />
    <glyph glyph-name="uni04E2" unicode="&#x4e2;" 
d="M48 0v700h500v-700h-500zM72 24h452v652h-452v-652z" />
    <glyph glyph-name="uni04E3" unicode="&#x4e3;" 
d="M48 0v700h500v-700h-500zM72 24h452v652h-452v-652z" />
    <glyph glyph-name="uni04E4" unicode="&#x4e4;" 
d="M48 0v700h500v-700h-500zM72 24h452v652h-452v-652z" />
    <glyph glyph-name="uni04E5" unicode="&#x4e5;" 
d="M48 0v700h500v-700h-500zM72 24h452v652h-452v-652z" />
    <glyph glyph-name="uni04E6" unicode="&#x4e6;" 
d="M48 0v700h500v-700h-500zM72 24h452v652h-452v-652z" />
    <glyph glyph-name="uni04E7" unicode="&#x4e7;" 
d="M48 0v700h500v-700h-500zM72 24h452v652h-452v-652z" />
    <glyph glyph-name="uni04EC" unicode="&#x4ec;" 
d="M48 0v700h500v-700h-500zM72 24h452v652h-452v-652z" />
    <glyph glyph-name="uni04ED" unicode="&#x4ed;" 
d="M48 0v700h500v-700h-500zM72 24h452v652h-452v-652z" />
    <glyph glyph-name="uni04EE" unicode="&#x4ee;" 
d="M48 0v700h500v-700h-500zM72 24h452v652h-452v-652z" />
    <glyph glyph-name="uni04EF" unicode="&#x4ef;" 
d="M48 0v700h500v-700h-500zM72 24h452v652h-452v-652z" />
    <glyph glyph-name="uni04F0" unicode="&#x4f0;" 
d="M48 0v700h500v-700h-500zM72 24h452v652h-452v-652z" />
    <glyph glyph-name="uni04F1" unicode="&#x4f1;" 
d="M48 0v700h500v-700h-500zM72 24h452v652h-452v-652z" />
    <glyph glyph-name="uni04F2" unicode="&#x4f2;" 
d="M48 0v700h500v-700h-500zM72 24h452v652h-452v-652z" />
    <glyph glyph-name="uni04F3" unicode="&#x4f3;" 
d="M48 0v700h500v-700h-500zM72 24h452v652h-452v-652z" />
    <glyph glyph-name="uni04F4" unicode="&#x4f4;" 
d="M48 0v700h500v-700h-500zM72 24h452v652h-452v-652z" />
    <glyph glyph-name="uni04F5" unicode="&#x4f5;" 
d="M48 0v700h500v-700h-500zM72 24h452v652h-452v-652z" />
    <glyph glyph-name="uni04F8" unicode="&#x4f8;" 
d="M48 0v700h500v-700h-500zM72 24h452v652h-452v-652z" />
    <glyph glyph-name="uni04F9" unicode="&#x4f9;" 
d="M48 0v700h500v-700h-500zM72 24h452v652h-452v-652z" />
    <glyph glyph-name="uni0A00" unicode="&#xa00;" horiz-adv-x="236" 
 />
    <glyph glyph-name="uni1E00" unicode="&#x1e00;" 
d="M48 0v700h500v-700h-500zM72 24h452v652h-452v-652z" />
    <glyph glyph-name="uni1E01" unicode="&#x1e01;" 
d="M48 0v700h500v-700h-500zM72 24h452v652h-452v-652z" />
    <glyph glyph-name="uni1E02" unicode="&#x1e02;" 
d="M48 0v700h500v-700h-500zM72 24h452v652h-452v-652z" />
    <glyph glyph-name="uni1E03" unicode="&#x1e03;" 
d="M48 0v700h500v-700h-500zM72 24h452v652h-452v-652z" />
    <glyph glyph-name="uni1E04" unicode="&#x1e04;" 
d="M48 0v700h500v-700h-500zM72 24h452v652h-452v-652z" />
    <glyph glyph-name="uni1E05" unicode="&#x1e05;" 
d="M48 0v700h500v-700h-500zM72 24h452v652h-452v-652z" />
    <glyph glyph-name="uni1E06" unicode="&#x1e06;" 
d="M48 0v700h500v-700h-500zM72 24h452v652h-452v-652z" />
    <glyph glyph-name="uni1E07" unicode="&#x1e07;" 
d="M48 0v700h500v-700h-500zM72 24h452v652h-452v-652z" />
    <glyph glyph-name="uni1E08" unicode="&#x1e08;" 
d="M48 0v700h500v-700h-500zM72 24h452v652h-452v-652z" />
    <glyph glyph-name="uni1E09" unicode="&#x1e09;" 
d="M48 0v700h500v-700h-500zM72 24h452v652h-452v-652z" />
    <glyph glyph-name="uni1E0A" unicode="&#x1e0a;" 
d="M48 0v700h500v-700h-500zM72 24h452v652h-452v-652z" />
    <glyph glyph-name="uni1E0B" unicode="&#x1e0b;" 
d="M48 0v700h500v-700h-500zM72 24h452v652h-452v-652z" />
    <glyph glyph-name="uni1E0C" unicode="&#x1e0c;" 
d="M48 0v700h500v-700h-500zM72 24h452v652h-452v-652z" />
    <glyph glyph-name="uni1E0D" unicode="&#x1e0d;" 
d="M48 0v700h500v-700h-500zM72 24h452v652h-452v-652z" />
    <glyph glyph-name="uni1E0E" unicode="&#x1e0e;" 
d="M48 0v700h500v-700h-500zM72 24h452v652h-452v-652z" />
    <glyph glyph-name="uni1E0F" unicode="&#x1e0f;" 
d="M48 0v700h500v-700h-500zM72 24h452v652h-452v-652z" />
    <glyph glyph-name="uni1E10" unicode="&#x1e10;" 
d="M48 0v700h500v-700h-500zM72 24h452v652h-452v-652z" />
    <glyph glyph-name="uni1E11" unicode="&#x1e11;" 
d="M48 0v700h500v-700h-500zM72 24h452v652h-452v-652z" />
    <glyph glyph-name="uni1E12" unicode="&#x1e12;" 
d="M48 0v700h500v-700h-500zM72 24h452v652h-452v-652z" />
    <glyph glyph-name="uni1E13" unicode="&#x1e13;" 
d="M48 0v700h500v-700h-500zM72 24h452v652h-452v-652z" />
    <glyph glyph-name="uni1E14" unicode="&#x1e14;" 
d="M48 0v700h500v-700h-500zM72 24h452v652h-452v-652z" />
    <glyph glyph-name="uni1E15" unicode="&#x1e15;" 
d="M48 0v700h500v-700h-500zM72 24h452v652h-452v-652z" />
    <glyph glyph-name="uni1E16" unicode="&#x1e16;" 
d="M48 0v700h500v-700h-500zM72 24h452v652h-452v-652z" />
    <glyph glyph-name="uni1E17" unicode="&#x1e17;" 
d="M48 0v700h500v-700h-500zM72 24h452v652h-452v-652z" />
    <glyph glyph-name="uni1E18" unicode="&#x1e18;" 
d="M48 0v700h500v-700h-500zM72 24h452v652h-452v-652z" />
    <glyph glyph-name="uni1E19" unicode="&#x1e19;" 
d="M48 0v700h500v-700h-500zM72 24h452v652h-452v-652z" />
    <glyph glyph-name="uni1E1A" unicode="&#x1e1a;" 
d="M48 0v700h500v-700h-500zM72 24h452v652h-452v-652z" />
    <glyph glyph-name="uni1E1B" unicode="&#x1e1b;" 
d="M48 0v700h500v-700h-500zM72 24h452v652h-452v-652z" />
    <glyph glyph-name="uni1E1C" unicode="&#x1e1c;" 
d="M48 0v700h500v-700h-500zM72 24h452v652h-452v-652z" />
    <glyph glyph-name="uni1E1D" unicode="&#x1e1d;" 
d="M48 0v700h500v-700h-500zM72 24h452v652h-452v-652z" />
    <glyph glyph-name="uni1E1E" unicode="&#x1e1e;" 
d="M48 0v700h500v-700h-500zM72 24h452v652h-452v-652z" />
    <glyph glyph-name="uni1E1F" unicode="&#x1e1f;" 
d="M48 0v700h500v-700h-500zM72 24h452v652h-452v-652z" />
    <glyph glyph-name="uni1E20" unicode="&#x1e20;" 
d="M48 0v700h500v-700h-500zM72 24h452v652h-452v-652z" />
    <glyph glyph-name="uni1E21" unicode="&#x1e21;" 
d="M48 0v700h500v-700h-500zM72 24h452v652h-452v-652z" />
    <glyph glyph-name="uni1E22" unicode="&#x1e22;" 
d="M48 0v700h500v-700h-500zM72 24h452v652h-452v-652z" />
    <glyph glyph-name="uni1E23" unicode="&#x1e23;" 
d="M48 0v700h500v-700h-500zM72 24h452v652h-452v-652z" />
    <glyph glyph-name="uni1E24" unicode="&#x1e24;" 
d="M48 0v700h500v-700h-500zM72 24h452v652h-452v-652z" />
    <glyph glyph-name="uni1E25" unicode="&#x1e25;" 
d="M48 0v700h500v-700h-500zM72 24h452v652h-452v-652z" />
    <glyph glyph-name="uni1E26" unicode="&#x1e26;" 
d="M48 0v700h500v-700h-500zM72 24h452v652h-452v-652z" />
    <glyph glyph-name="uni1E27" unicode="&#x1e27;" 
d="M48 0v700h500v-700h-500zM72 24h452v652h-452v-652z" />
    <glyph glyph-name="uni1E28" unicode="&#x1e28;" 
d="M48 0v700h500v-700h-500zM72 24h452v652h-452v-652z" />
    <glyph glyph-name="uni1E29" unicode="&#x1e29;" 
d="M48 0v700h500v-700h-500zM72 24h452v652h-452v-652z" />
    <glyph glyph-name="uni1E2A" unicode="&#x1e2a;" 
d="M48 0v700h500v-700h-500zM72 24h452v652h-452v-652z" />
    <glyph glyph-name="uni1E2B" unicode="&#x1e2b;" 
d="M48 0v700h500v-700h-500zM72 24h452v652h-452v-652z" />
    <glyph glyph-name="uni1E2C" unicode="&#x1e2c;" 
d="M48 0v700h500v-700h-500zM72 24h452v652h-452v-652z" />
    <glyph glyph-name="uni1E2D" unicode="&#x1e2d;" 
d="M48 0v700h500v-700h-500zM72 24h452v652h-452v-652z" />
    <glyph glyph-name="uni1E2E" unicode="&#x1e2e;" 
d="M48 0v700h500v-700h-500zM72 24h452v652h-452v-652z" />
    <glyph glyph-name="uni1E2F" unicode="&#x1e2f;" 
d="M48 0v700h500v-700h-500zM72 24h452v652h-452v-652z" />
    <glyph glyph-name="uni1E30" unicode="&#x1e30;" 
d="M48 0v700h500v-700h-500zM72 24h452v652h-452v-652z" />
    <glyph glyph-name="uni1E31" unicode="&#x1e31;" 
d="M48 0v700h500v-700h-500zM72 24h452v652h-452v-652z" />
    <glyph glyph-name="uni1E32" unicode="&#x1e32;" 
d="M48 0v700h500v-700h-500zM72 24h452v652h-452v-652z" />
    <glyph glyph-name="uni1E33" unicode="&#x1e33;" 
d="M48 0v700h500v-700h-500zM72 24h452v652h-452v-652z" />
    <glyph glyph-name="uni1E34" unicode="&#x1e34;" 
d="M48 0v700h500v-700h-500zM72 24h452v652h-452v-652z" />
    <glyph glyph-name="uni1E35" unicode="&#x1e35;" 
d="M48 0v700h500v-700h-500zM72 24h452v652h-452v-652z" />
    <glyph glyph-name="uni1E36" unicode="&#x1e36;" 
d="M48 0v700h500v-700h-500zM72 24h452v652h-452v-652z" />
    <glyph glyph-name="uni1E37" unicode="&#x1e37;" 
d="M48 0v700h500v-700h-500zM72 24h452v652h-452v-652z" />
    <glyph glyph-name="uni1E38" unicode="&#x1e38;" 
d="M48 0v700h500v-700h-500zM72 24h452v652h-452v-652z" />
    <glyph glyph-name="uni1E39" unicode="&#x1e39;" 
d="M48 0v700h500v-700h-500zM72 24h452v652h-452v-652z" />
    <glyph glyph-name="uni1E3A" unicode="&#x1e3a;" 
d="M48 0v700h500v-700h-500zM72 24h452v652h-452v-652z" />
    <glyph glyph-name="uni1E3B" unicode="&#x1e3b;" 
d="M48 0v700h500v-700h-500zM72 24h452v652h-452v-652z" />
    <glyph glyph-name="uni1E3C" unicode="&#x1e3c;" 
d="M48 0v700h500v-700h-500zM72 24h452v652h-452v-652z" />
    <glyph glyph-name="uni1E3D" unicode="&#x1e3d;" 
d="M48 0v700h500v-700h-500zM72 24h452v652h-452v-652z" />
    <glyph glyph-name="uni1E3E" unicode="&#x1e3e;" 
d="M48 0v700h500v-700h-500zM72 24h452v652h-452v-652z" />
    <glyph glyph-name="uni1E3F" unicode="&#x1e3f;" 
d="M48 0v700h500v-700h-500zM72 24h452v652h-452v-652z" />
    <glyph glyph-name="uni1E40" unicode="&#x1e40;" 
d="M48 0v700h500v-700h-500zM72 24h452v652h-452v-652z" />
    <glyph glyph-name="uni1E41" unicode="&#x1e41;" 
d="M48 0v700h500v-700h-500zM72 24h452v652h-452v-652z" />
    <glyph glyph-name="uni1E42" unicode="&#x1e42;" 
d="M48 0v700h500v-700h-500zM72 24h452v652h-452v-652z" />
    <glyph glyph-name="uni1E43" unicode="&#x1e43;" 
d="M48 0v700h500v-700h-500zM72 24h452v652h-452v-652z" />
    <glyph glyph-name="uni1E44" unicode="&#x1e44;" 
d="M48 0v700h500v-700h-500zM72 24h452v652h-452v-652z" />
    <glyph glyph-name="uni1E45" unicode="&#x1e45;" 
d="M48 0v700h500v-700h-500zM72 24h452v652h-452v-652z" />
    <glyph glyph-name="uni1E46" unicode="&#x1e46;" 
d="M48 0v700h500v-700h-500zM72 24h452v652h-452v-652z" />
    <glyph glyph-name="uni1E47" unicode="&#x1e47;" 
d="M48 0v700h500v-700h-500zM72 24h452v652h-452v-652z" />
    <glyph glyph-name="uni1E48" unicode="&#x1e48;" 
d="M48 0v700h500v-700h-500zM72 24h452v652h-452v-652z" />
    <glyph glyph-name="uni1E49" unicode="&#x1e49;" 
d="M48 0v700h500v-700h-500zM72 24h452v652h-452v-652z" />
    <glyph glyph-name="uni1E4A" unicode="&#x1e4a;" 
d="M48 0v700h500v-700h-500zM72 24h452v652h-452v-652z" />
    <glyph glyph-name="uni1E4B" unicode="&#x1e4b;" 
d="M48 0v700h500v-700h-500zM72 24h452v652h-452v-652z" />
    <glyph glyph-name="uni1E4C" unicode="&#x1e4c;" 
d="M48 0v700h500v-700h-500zM72 24h452v652h-452v-652z" />
    <glyph glyph-name="uni1E4D" unicode="&#x1e4d;" 
d="M48 0v700h500v-700h-500zM72 24h452v652h-452v-652z" />
    <glyph glyph-name="uni1E4E" unicode="&#x1e4e;" 
d="M48 0v700h500v-700h-500zM72 24h452v652h-452v-652z" />
    <glyph glyph-name="uni1E4F" unicode="&#x1e4f;" 
d="M48 0v700h500v-700h-500zM72 24h452v652h-452v-652z" />
    <glyph glyph-name="uni1E50" unicode="&#x1e50;" 
d="M48 0v700h500v-700h-500zM72 24h452v652h-452v-652z" />
    <glyph glyph-name="uni1E51" unicode="&#x1e51;" 
d="M48 0v700h500v-700h-500zM72 24h452v652h-452v-652z" />
    <glyph glyph-name="uni1E52" unicode="&#x1e52;" 
d="M48 0v700h500v-700h-500zM72 24h452v652h-452v-652z" />
    <glyph glyph-name="uni1E53" unicode="&#x1e53;" 
d="M48 0v700h500v-700h-500zM72 24h452v652h-452v-652z" />
    <glyph glyph-name="uni1E54" unicode="&#x1e54;" 
d="M48 0v700h500v-700h-500zM72 24h452v652h-452v-652z" />
    <glyph glyph-name="uni1E55" unicode="&#x1e55;" 
d="M48 0v700h500v-700h-500zM72 24h452v652h-452v-652z" />
    <glyph glyph-name="uni1E56" unicode="&#x1e56;" 
d="M48 0v700h500v-700h-500zM72 24h452v652h-452v-652z" />
    <glyph glyph-name="uni1E57" unicode="&#x1e57;" 
d="M48 0v700h500v-700h-500zM72 24h452v652h-452v-652z" />
    <glyph glyph-name="uni1E58" unicode="&#x1e58;" 
d="M48 0v700h500v-700h-500zM72 24h452v652h-452v-652z" />
    <glyph glyph-name="uni1E59" unicode="&#x1e59;" 
d="M48 0v700h500v-700h-500zM72 24h452v652h-452v-652z" />
    <glyph glyph-name="uni1E5A" unicode="&#x1e5a;" 
d="M48 0v700h500v-700h-500zM72 24h452v652h-452v-652z" />
    <glyph glyph-name="uni1E5B" unicode="&#x1e5b;" 
d="M48 0v700h500v-700h-500zM72 24h452v652h-452v-652z" />
    <glyph glyph-name="uni1E5C" unicode="&#x1e5c;" 
d="M48 0v700h500v-700h-500zM72 24h452v652h-452v-652z" />
    <glyph glyph-name="uni1E5D" unicode="&#x1e5d;" 
d="M48 0v700h500v-700h-500zM72 24h452v652h-452v-652z" />
    <glyph glyph-name="uni1E5E" unicode="&#x1e5e;" 
d="M48 0v700h500v-700h-500zM72 24h452v652h-452v-652z" />
    <glyph glyph-name="uni1E5F" unicode="&#x1e5f;" 
d="M48 0v700h500v-700h-500zM72 24h452v652h-452v-652z" />
    <glyph glyph-name="uni1E60" unicode="&#x1e60;" 
d="M48 0v700h500v-700h-500zM72 24h452v652h-452v-652z" />
    <glyph glyph-name="uni1E61" unicode="&#x1e61;" 
d="M48 0v700h500v-700h-500zM72 24h452v652h-452v-652z" />
    <glyph glyph-name="uni1E62" unicode="&#x1e62;" 
d="M48 0v700h500v-700h-500zM72 24h452v652h-452v-652z" />
    <glyph glyph-name="uni1E63" unicode="&#x1e63;" 
d="M48 0v700h500v-700h-500zM72 24h452v652h-452v-652z" />
    <glyph glyph-name="uni1E64" unicode="&#x1e64;" 
d="M48 0v700h500v-700h-500zM72 24h452v652h-452v-652z" />
    <glyph glyph-name="uni1E65" unicode="&#x1e65;" 
d="M48 0v700h500v-700h-500zM72 24h452v652h-452v-652z" />
    <glyph glyph-name="uni1E66" unicode="&#x1e66;" 
d="M48 0v700h500v-700h-500zM72 24h452v652h-452v-652z" />
    <glyph glyph-name="uni1E67" unicode="&#x1e67;" 
d="M48 0v700h500v-700h-500zM72 24h452v652h-452v-652z" />
    <glyph glyph-name="uni1E68" unicode="&#x1e68;" 
d="M48 0v700h500v-700h-500zM72 24h452v652h-452v-652z" />
    <glyph glyph-name="uni1E69" unicode="&#x1e69;" 
d="M48 0v700h500v-700h-500zM72 24h452v652h-452v-652z" />
    <glyph glyph-name="uni1E6A" unicode="&#x1e6a;" 
d="M48 0v700h500v-700h-500zM72 24h452v652h-452v-652z" />
    <glyph glyph-name="uni1E6B" unicode="&#x1e6b;" 
d="M48 0v700h500v-700h-500zM72 24h452v652h-452v-652z" />
    <glyph glyph-name="uni1E6C" unicode="&#x1e6c;" 
d="M48 0v700h500v-700h-500zM72 24h452v652h-452v-652z" />
    <glyph glyph-name="uni1E6D" unicode="&#x1e6d;" 
d="M48 0v700h500v-700h-500zM72 24h452v652h-452v-652z" />
    <glyph glyph-name="uni1E6E" unicode="&#x1e6e;" 
d="M48 0v700h500v-700h-500zM72 24h452v652h-452v-652z" />
    <glyph glyph-name="uni1E6F" unicode="&#x1e6f;" 
d="M48 0v700h500v-700h-500zM72 24h452v652h-452v-652z" />
    <glyph glyph-name="uni1E70" unicode="&#x1e70;" 
d="M48 0v700h500v-700h-500zM72 24h452v652h-452v-652z" />
    <glyph glyph-name="uni1E71" unicode="&#x1e71;" 
d="M48 0v700h500v-700h-500zM72 24h452v652h-452v-652z" />
    <glyph glyph-name="uni1E72" unicode="&#x1e72;" 
d="M48 0v700h500v-700h-500zM72 24h452v652h-452v-652z" />
    <glyph glyph-name="uni1E73" unicode="&#x1e73;" 
d="M48 0v700h500v-700h-500zM72 24h452v652h-452v-652z" />
    <glyph glyph-name="uni1E74" unicode="&#x1e74;" 
d="M48 0v700h500v-700h-500zM72 24h452v652h-452v-652z" />
    <glyph glyph-name="uni1E75" unicode="&#x1e75;" 
d="M48 0v700h500v-700h-500zM72 24h452v652h-452v-652z" />
    <glyph glyph-name="uni1E76" unicode="&#x1e76;" 
d="M48 0v700h500v-700h-500zM72 24h452v652h-452v-652z" />
    <glyph glyph-name="uni1E77" unicode="&#x1e77;" 
d="M48 0v700h500v-700h-500zM72 24h452v652h-452v-652z" />
    <glyph glyph-name="uni1E78" unicode="&#x1e78;" 
d="M48 0v700h500v-700h-500zM72 24h452v652h-452v-652z" />
    <glyph glyph-name="uni1E79" unicode="&#x1e79;" 
d="M48 0v700h500v-700h-500zM72 24h452v652h-452v-652z" />
    <glyph glyph-name="uni1E7A" unicode="&#x1e7a;" 
d="M48 0v700h500v-700h-500zM72 24h452v652h-452v-652z" />
    <glyph glyph-name="uni1E7B" unicode="&#x1e7b;" 
d="M48 0v700h500v-700h-500zM72 24h452v652h-452v-652z" />
    <glyph glyph-name="uni1E7C" unicode="&#x1e7c;" 
d="M48 0v700h500v-700h-500zM72 24h452v652h-452v-652z" />
    <glyph glyph-name="uni1E7D" unicode="&#x1e7d;" 
d="M48 0v700h500v-700h-500zM72 24h452v652h-452v-652z" />
    <glyph glyph-name="uni1E7E" unicode="&#x1e7e;" 
d="M48 0v700h500v-700h-500zM72 24h452v652h-452v-652z" />
    <glyph glyph-name="uni1E7F" unicode="&#x1e7f;" 
d="M48 0v700h500v-700h-500zM72 24h452v652h-452v-652z" />
    <glyph glyph-name="Wgrave" unicode="&#x1e80;" 
d="M48 0v700h500v-700h-500zM72 24h452v652h-452v-652z" />
    <glyph glyph-name="wgrave" unicode="&#x1e81;" 
d="M48 0v700h500v-700h-500zM72 24h452v652h-452v-652z" />
    <glyph glyph-name="Wacute" unicode="&#x1e82;" 
d="M48 0v700h500v-700h-500zM72 24h452v652h-452v-652z" />
    <glyph glyph-name="wacute" unicode="&#x1e83;" 
d="M48 0v700h500v-700h-500zM72 24h452v652h-452v-652z" />
    <glyph glyph-name="Wdieresis" unicode="&#x1e84;" 
d="M48 0v700h500v-700h-500zM72 24h452v652h-452v-652z" />
    <glyph glyph-name="wdieresis" unicode="&#x1e85;" 
d="M48 0v700h500v-700h-500zM72 24h452v652h-452v-652z" />
    <glyph glyph-name="uni1E86" unicode="&#x1e86;" 
d="M48 0v700h500v-700h-500zM72 24h452v652h-452v-652z" />
    <glyph glyph-name="uni1E87" unicode="&#x1e87;" 
d="M48 0v700h500v-700h-500zM72 24h452v652h-452v-652z" />
    <glyph glyph-name="uni1E88" unicode="&#x1e88;" 
d="M48 0v700h500v-700h-500zM72 24h452v652h-452v-652z" />
    <glyph glyph-name="uni1E89" unicode="&#x1e89;" 
d="M48 0v700h500v-700h-500zM72 24h452v652h-452v-652z" />
    <glyph glyph-name="uni1E8A" unicode="&#x1e8a;" 
d="M48 0v700h500v-700h-500zM72 24h452v652h-452v-652z" />
    <glyph glyph-name="uni1E8B" unicode="&#x1e8b;" 
d="M48 0v700h500v-700h-500zM72 24h452v652h-452v-652z" />
    <glyph glyph-name="uni1E8C" unicode="&#x1e8c;" 
d="M48 0v700h500v-700h-500zM72 24h452v652h-452v-652z" />
    <glyph glyph-name="uni1E8D" unicode="&#x1e8d;" 
d="M48 0v700h500v-700h-500zM72 24h452v652h-452v-652z" />
    <glyph glyph-name="uni1E8E" unicode="&#x1e8e;" 
d="M48 0v700h500v-700h-500zM72 24h452v652h-452v-652z" />
    <glyph glyph-name="uni1E8F" unicode="&#x1e8f;" 
d="M48 0v700h500v-700h-500zM72 24h452v652h-452v-652z" />
    <glyph glyph-name="uni1E90" unicode="&#x1e90;" 
d="M48 0v700h500v-700h-500zM72 24h452v652h-452v-652z" />
    <glyph glyph-name="uni1E91" unicode="&#x1e91;" 
d="M48 0v700h500v-700h-500zM72 24h452v652h-452v-652z" />
    <glyph glyph-name="uni1E92" unicode="&#x1e92;" 
d="M48 0v700h500v-700h-500zM72 24h452v652h-452v-652z" />
    <glyph glyph-name="uni1E93" unicode="&#x1e93;" 
d="M48 0v700h500v-700h-500zM72 24h452v652h-452v-652z" />
    <glyph glyph-name="uni1E94" unicode="&#x1e94;" 
d="M48 0v700h500v-700h-500zM72 24h452v652h-452v-652z" />
    <glyph glyph-name="uni1E95" unicode="&#x1e95;" 
d="M48 0v700h500v-700h-500zM72 24h452v652h-452v-652z" />
    <glyph glyph-name="uni1E96" unicode="&#x1e96;" 
d="M48 0v700h500v-700h-500zM72 24h452v652h-452v-652z" />
    <glyph glyph-name="uni1E97" unicode="&#x1e97;" 
d="M48 0v700h500v-700h-500zM72 24h452v652h-452v-652z" />
    <glyph glyph-name="uni1E98" unicode="&#x1e98;" 
d="M48 0v700h500v-700h-500zM72 24h452v652h-452v-652z" />
    <glyph glyph-name="uni1E99" unicode="&#x1e99;" 
d="M48 0v700h500v-700h-500zM72 24h452v652h-452v-652z" />
    <glyph glyph-name="uni1E9B" unicode="&#x1e9b;" 
d="M48 0v700h500v-700h-500zM72 24h452v652h-452v-652z" />
    <glyph glyph-name="uni1EA0" unicode="&#x1ea0;" 
d="M48 0v700h500v-700h-500zM72 24h452v652h-452v-652z" />
    <glyph glyph-name="uni1EA1" unicode="&#x1ea1;" 
d="M48 0v700h500v-700h-500zM72 24h452v652h-452v-652z" />
    <glyph glyph-name="uni1EA2" unicode="&#x1ea2;" 
d="M48 0v700h500v-700h-500zM72 24h452v652h-452v-652z" />
    <glyph glyph-name="uni1EA3" unicode="&#x1ea3;" 
d="M48 0v700h500v-700h-500zM72 24h452v652h-452v-652z" />
    <glyph glyph-name="uni1EA4" unicode="&#x1ea4;" 
d="M48 0v700h500v-700h-500zM72 24h452v652h-452v-652z" />
    <glyph glyph-name="uni1EA5" unicode="&#x1ea5;" 
d="M48 0v700h500v-700h-500zM72 24h452v652h-452v-652z" />
    <glyph glyph-name="uni1EA6" unicode="&#x1ea6;" 
d="M48 0v700h500v-700h-500zM72 24h452v652h-452v-652z" />
    <glyph glyph-name="uni1EA7" unicode="&#x1ea7;" 
d="M48 0v700h500v-700h-500zM72 24h452v652h-452v-652z" />
    <glyph glyph-name="uni1EA8" unicode="&#x1ea8;" 
d="M48 0v700h500v-700h-500zM72 24h452v652h-452v-652z" />
    <glyph glyph-name="uni1EA9" unicode="&#x1ea9;" 
d="M48 0v700h500v-700h-500zM72 24h452v652h-452v-652z" />
    <glyph glyph-name="uni1EAA" unicode="&#x1eaa;" 
d="M48 0v700h500v-700h-500zM72 24h452v652h-452v-652z" />
    <glyph glyph-name="uni1EAB" unicode="&#x1eab;" 
d="M48 0v700h500v-700h-500zM72 24h452v652h-452v-652z" />
    <glyph glyph-name="uni1EAC" unicode="&#x1eac;" 
d="M48 0v700h500v-700h-500zM72 24h452v652h-452v-652z" />
    <glyph glyph-name="uni1EAD" unicode="&#x1ead;" 
d="M48 0v700h500v-700h-500zM72 24h452v652h-452v-652z" />
    <glyph glyph-name="uni1EAE" unicode="&#x1eae;" 
d="M48 0v700h500v-700h-500zM72 24h452v652h-452v-652z" />
    <glyph glyph-name="uni1EAF" unicode="&#x1eaf;" 
d="M48 0v700h500v-700h-500zM72 24h452v652h-452v-652z" />
    <glyph glyph-name="uni1EB0" unicode="&#x1eb0;" 
d="M48 0v700h500v-700h-500zM72 24h452v652h-452v-652z" />
    <glyph glyph-name="uni1EB1" unicode="&#x1eb1;" 
d="M48 0v700h500v-700h-500zM72 24h452v652h-452v-652z" />
    <glyph glyph-name="uni1EB2" unicode="&#x1eb2;" 
d="M48 0v700h500v-700h-500zM72 24h452v652h-452v-652z" />
    <glyph glyph-name="uni1EB3" unicode="&#x1eb3;" 
d="M48 0v700h500v-700h-500zM72 24h452v652h-452v-652z" />
    <glyph glyph-name="uni1EB4" unicode="&#x1eb4;" 
d="M48 0v700h500v-700h-500zM72 24h452v652h-452v-652z" />
    <glyph glyph-name="uni1EB5" unicode="&#x1eb5;" 
d="M48 0v700h500v-700h-500zM72 24h452v652h-452v-652z" />
    <glyph glyph-name="uni1EB6" unicode="&#x1eb6;" 
d="M48 0v700h500v-700h-500zM72 24h452v652h-452v-652z" />
    <glyph glyph-name="uni1EB7" unicode="&#x1eb7;" 
d="M48 0v700h500v-700h-500zM72 24h452v652h-452v-652z" />
    <glyph glyph-name="uni1EB8" unicode="&#x1eb8;" 
d="M48 0v700h500v-700h-500zM72 24h452v652h-452v-652z" />
    <glyph glyph-name="uni1EB9" unicode="&#x1eb9;" 
d="M48 0v700h500v-700h-500zM72 24h452v652h-452v-652z" />
    <glyph glyph-name="uni1EBA" unicode="&#x1eba;" 
d="M48 0v700h500v-700h-500zM72 24h452v652h-452v-652z" />
    <glyph glyph-name="uni1EBB" unicode="&#x1ebb;" 
d="M48 0v700h500v-700h-500zM72 24h452v652h-452v-652z" />
    <glyph glyph-name="uni1EBC" unicode="&#x1ebc;" 
d="M48 0v700h500v-700h-500zM72 24h452v652h-452v-652z" />
    <glyph glyph-name="uni1EBD" unicode="&#x1ebd;" 
d="M48 0v700h500v-700h-500zM72 24h452v652h-452v-652z" />
    <glyph glyph-name="uni1EBE" unicode="&#x1ebe;" 
d="M48 0v700h500v-700h-500zM72 24h452v652h-452v-652z" />
    <glyph glyph-name="uni1EBF" unicode="&#x1ebf;" 
d="M48 0v700h500v-700h-500zM72 24h452v652h-452v-652z" />
    <glyph glyph-name="uni1EC0" unicode="&#x1ec0;" 
d="M48 0v700h500v-700h-500zM72 24h452v652h-452v-652z" />
    <glyph glyph-name="uni1EC1" unicode="&#x1ec1;" 
d="M48 0v700h500v-700h-500zM72 24h452v652h-452v-652z" />
    <glyph glyph-name="uni1EC2" unicode="&#x1ec2;" 
d="M48 0v700h500v-700h-500zM72 24h452v652h-452v-652z" />
    <glyph glyph-name="uni1EC3" unicode="&#x1ec3;" 
d="M48 0v700h500v-700h-500zM72 24h452v652h-452v-652z" />
    <glyph glyph-name="uni1EC4" unicode="&#x1ec4;" 
d="M48 0v700h500v-700h-500zM72 24h452v652h-452v-652z" />
    <glyph glyph-name="uni1EC5" unicode="&#x1ec5;" 
d="M48 0v700h500v-700h-500zM72 24h452v652h-452v-652z" />
    <glyph glyph-name="uni1EC6" unicode="&#x1ec6;" 
d="M48 0v700h500v-700h-500zM72 24h452v652h-452v-652z" />
    <glyph glyph-name="uni1EC7" unicode="&#x1ec7;" 
d="M48 0v700h500v-700h-500zM72 24h452v652h-452v-652z" />
    <glyph glyph-name="uni1EC8" unicode="&#x1ec8;" 
d="M48 0v700h500v-700h-500zM72 24h452v652h-452v-652z" />
    <glyph glyph-name="uni1EC9" unicode="&#x1ec9;" 
d="M48 0v700h500v-700h-500zM72 24h452v652h-452v-652z" />
    <glyph glyph-name="uni1ECA" unicode="&#x1eca;" 
d="M48 0v700h500v-700h-500zM72 24h452v652h-452v-652z" />
    <glyph glyph-name="uni1ECB" unicode="&#x1ecb;" 
d="M48 0v700h500v-700h-500zM72 24h452v652h-452v-652z" />
    <glyph glyph-name="uni1ECC" unicode="&#x1ecc;" 
d="M48 0v700h500v-700h-500zM72 24h452v652h-452v-652z" />
    <glyph glyph-name="uni1ECD" unicode="&#x1ecd;" 
d="M48 0v700h500v-700h-500zM72 24h452v652h-452v-652z" />
    <glyph glyph-name="uni1ECE" unicode="&#x1ece;" 
d="M48 0v700h500v-700h-500zM72 24h452v652h-452v-652z" />
    <glyph glyph-name="uni1ECF" unicode="&#x1ecf;" 
d="M48 0v700h500v-700h-500zM72 24h452v652h-452v-652z" />
    <glyph glyph-name="uni1ED0" unicode="&#x1ed0;" 
d="M48 0v700h500v-700h-500zM72 24h452v652h-452v-652z" />
    <glyph glyph-name="uni1ED1" unicode="&#x1ed1;" 
d="M48 0v700h500v-700h-500zM72 24h452v652h-452v-652z" />
    <glyph glyph-name="uni1ED2" unicode="&#x1ed2;" 
d="M48 0v700h500v-700h-500zM72 24h452v652h-452v-652z" />
    <glyph glyph-name="uni1ED3" unicode="&#x1ed3;" 
d="M48 0v700h500v-700h-500zM72 24h452v652h-452v-652z" />
    <glyph glyph-name="uni1ED4" unicode="&#x1ed4;" 
d="M48 0v700h500v-700h-500zM72 24h452v652h-452v-652z" />
    <glyph glyph-name="uni1ED5" unicode="&#x1ed5;" 
d="M48 0v700h500v-700h-500zM72 24h452v652h-452v-652z" />
    <glyph glyph-name="uni1ED6" unicode="&#x1ed6;" 
d="M48 0v700h500v-700h-500zM72 24h452v652h-452v-652z" />
    <glyph glyph-name="uni1ED7" unicode="&#x1ed7;" 
d="M48 0v700h500v-700h-500zM72 24h452v652h-452v-652z" />
    <glyph glyph-name="uni1ED8" unicode="&#x1ed8;" 
d="M48 0v700h500v-700h-500zM72 24h452v652h-452v-652z" />
    <glyph glyph-name="uni1ED9" unicode="&#x1ed9;" 
d="M48 0v700h500v-700h-500zM72 24h452v652h-452v-652z" />
    <glyph glyph-name="uni1EDA" unicode="&#x1eda;" 
d="M48 0v700h500v-700h-500zM72 24h452v652h-452v-652z" />
    <glyph glyph-name="uni1EDB" unicode="&#x1edb;" 
d="M48 0v700h500v-700h-500zM72 24h452v652h-452v-652z" />
    <glyph glyph-name="uni1EDC" unicode="&#x1edc;" 
d="M48 0v700h500v-700h-500zM72 24h452v652h-452v-652z" />
    <glyph glyph-name="uni1EDD" unicode="&#x1edd;" 
d="M48 0v700h500v-700h-500zM72 24h452v652h-452v-652z" />
    <glyph glyph-name="uni1EDE" unicode="&#x1ede;" 
d="M48 0v700h500v-700h-500zM72 24h452v652h-452v-652z" />
    <glyph glyph-name="uni1EDF" unicode="&#x1edf;" 
d="M48 0v700h500v-700h-500zM72 24h452v652h-452v-652z" />
    <glyph glyph-name="uni1EE0" unicode="&#x1ee0;" 
d="M48 0v700h500v-700h-500zM72 24h452v652h-452v-652z" />
    <glyph glyph-name="uni1EE1" unicode="&#x1ee1;" 
d="M48 0v700h500v-700h-500zM72 24h452v652h-452v-652z" />
    <glyph glyph-name="uni1EE2" unicode="&#x1ee2;" 
d="M48 0v700h500v-700h-500zM72 24h452v652h-452v-652z" />
    <glyph glyph-name="uni1EE3" unicode="&#x1ee3;" 
d="M48 0v700h500v-700h-500zM72 24h452v652h-452v-652z" />
    <glyph glyph-name="uni1EE4" unicode="&#x1ee4;" 
d="M48 0v700h500v-700h-500zM72 24h452v652h-452v-652z" />
    <glyph glyph-name="uni1EE5" unicode="&#x1ee5;" 
d="M48 0v700h500v-700h-500zM72 24h452v652h-452v-652z" />
    <glyph glyph-name="uni1EE6" unicode="&#x1ee6;" 
d="M48 0v700h500v-700h-500zM72 24h452v652h-452v-652z" />
    <glyph glyph-name="uni1EE7" unicode="&#x1ee7;" 
d="M48 0v700h500v-700h-500zM72 24h452v652h-452v-652z" />
    <glyph glyph-name="uni1EE8" unicode="&#x1ee8;" 
d="M48 0v700h500v-700h-500zM72 24h452v652h-452v-652z" />
    <glyph glyph-name="uni1EE9" unicode="&#x1ee9;" 
d="M48 0v700h500v-700h-500zM72 24h452v652h-452v-652z" />
    <glyph glyph-name="uni1EEA" unicode="&#x1eea;" 
d="M48 0v700h500v-700h-500zM72 24h452v652h-452v-652z" />
    <glyph glyph-name="uni1EEB" unicode="&#x1eeb;" 
d="M48 0v700h500v-700h-500zM72 24h452v652h-452v-652z" />
    <glyph glyph-name="uni1EEC" unicode="&#x1eec;" 
d="M48 0v700h500v-700h-500zM72 24h452v652h-452v-652z" />
    <glyph glyph-name="uni1EED" unicode="&#x1eed;" 
d="M48 0v700h500v-700h-500zM72 24h452v652h-452v-652z" />
    <glyph glyph-name="uni1EEE" unicode="&#x1eee;" 
d="M48 0v700h500v-700h-500zM72 24h452v652h-452v-652z" />
    <glyph glyph-name="uni1EEF" unicode="&#x1eef;" 
d="M48 0v700h500v-700h-500zM72 24h452v652h-452v-652z" />
    <glyph glyph-name="uni1EF0" unicode="&#x1ef0;" 
d="M48 0v700h500v-700h-500zM72 24h452v652h-452v-652z" />
    <glyph glyph-name="uni1EF1" unicode="&#x1ef1;" 
d="M48 0v700h500v-700h-500zM72 24h452v652h-452v-652z" />
    <glyph glyph-name="Ygrave" unicode="&#x1ef2;" 
d="M48 0v700h500v-700h-500zM72 24h452v652h-452v-652z" />
    <glyph glyph-name="ygrave" unicode="&#x1ef3;" 
d="M48 0v700h500v-700h-500zM72 24h452v652h-452v-652z" />
    <glyph glyph-name="uni1EF4" unicode="&#x1ef4;" 
d="M48 0v700h500v-700h-500zM72 24h452v652h-452v-652z" />
    <glyph glyph-name="uni1EF5" unicode="&#x1ef5;" 
d="M48 0v700h500v-700h-500zM72 24h452v652h-452v-652z" />
    <glyph glyph-name="uni1EF6" unicode="&#x1ef6;" 
d="M48 0v700h500v-700h-500zM72 24h452v652h-452v-652z" />
    <glyph glyph-name="uni1EF7" unicode="&#x1ef7;" 
d="M48 0v700h500v-700h-500zM72 24h452v652h-452v-652z" />
    <glyph glyph-name="uni1EF8" unicode="&#x1ef8;" 
d="M48 0v700h500v-700h-500zM72 24h452v652h-452v-652z" />
    <glyph glyph-name="uni1EF9" unicode="&#x1ef9;" 
d="M48 0v700h500v-700h-500zM72 24h452v652h-452v-652z" />
    <glyph glyph-name="uni1F78" unicode="&#x1f78;" 
d="M48 0v700h500v-700h-500zM72 24h452v652h-452v-652z" />
    <glyph glyph-name="uni1FB0" unicode="&#x1fb0;" 
d="M48 0v700h500v-700h-500zM72 24h452v652h-452v-652z" />
    <glyph glyph-name="uni1FB1" unicode="&#x1fb1;" 
d="M48 0v700h500v-700h-500zM72 24h452v652h-452v-652z" />
    <glyph glyph-name="uni1FB8" unicode="&#x1fb8;" 
d="M48 0v700h500v-700h-500zM72 24h452v652h-452v-652z" />
    <glyph glyph-name="uni1FB9" unicode="&#x1fb9;" 
d="M48 0v700h500v-700h-500zM72 24h452v652h-452v-652z" />
    <glyph glyph-name="uni1FBC" unicode="&#x1fbc;" 
d="M48 0v700h500v-700h-500zM72 24h452v652h-452v-652z" />
    <glyph glyph-name="uni1FCC" unicode="&#x1fcc;" 
d="M48 0v700h500v-700h-500zM72 24h452v652h-452v-652z" />
    <glyph glyph-name="uni1FD0" unicode="&#x1fd0;" 
d="M48 0v700h500v-700h-500zM72 24h452v652h-452v-652z" />
    <glyph glyph-name="uni1FD1" unicode="&#x1fd1;" 
d="M48 0v700h500v-700h-500zM72 24h452v652h-452v-652z" />
    <glyph glyph-name="uni1FD8" unicode="&#x1fd8;" 
d="M48 0v700h500v-700h-500zM72 24h452v652h-452v-652z" />
    <glyph glyph-name="uni1FD9" unicode="&#x1fd9;" 
d="M48 0v700h500v-700h-500zM72 24h452v652h-452v-652z" />
    <glyph glyph-name="uni1FE0" unicode="&#x1fe0;" 
d="M48 0v700h500v-700h-500zM72 24h452v652h-452v-652z" />
    <glyph glyph-name="uni1FE1" unicode="&#x1fe1;" 
d="M48 0v700h500v-700h-500zM72 24h452v652h-452v-652z" />
    <glyph glyph-name="uni1FE8" unicode="&#x1fe8;" 
d="M48 0v700h500v-700h-500zM72 24h452v652h-452v-652z" />
    <glyph glyph-name="uni1FE9" unicode="&#x1fe9;" 
d="M48 0v700h500v-700h-500zM72 24h452v652h-452v-652z" />
    <glyph glyph-name="uni1FFC" unicode="&#x1ffc;" 
d="M48 0v700h500v-700h-500zM72 24h452v652h-452v-652z" />
    <glyph glyph-name="uni200B" unicode="&#x200b;" 
d="M48 0v700h500v-700h-500zM72 24h452v652h-452v-652z" />
    <glyph glyph-name="uni200C" unicode="&#x200c;" 
d="M48 0v700h500v-700h-500zM72 24h452v652h-452v-652z" />
    <glyph glyph-name="uni200D" unicode="&#x200d;" 
d="M48 0v700h500v-700h-500zM72 24h452v652h-452v-652z" />
    <glyph glyph-name="endash" unicode="&#x2013;" 
d="M48 0v700h500v-700h-500zM72 24h452v652h-452v-652z" />
    <glyph glyph-name="emdash" unicode="&#x2014;" 
d="M48 0v700h500v-700h-500zM72 24h452v652h-452v-652z" />
    <glyph glyph-name="uni2015" unicode="&#x2015;" 
d="M48 0v700h500v-700h-500zM72 24h452v652h-452v-652z" />
    <glyph glyph-name="quoteleft" unicode="&#x2018;" 
d="M48 0v700h500v-700h-500zM72 24h452v652h-452v-652z" />
    <glyph glyph-name="quoteright" unicode="&#x2019;" 
d="M48 0v700h500v-700h-500zM72 24h452v652h-452v-652z" />
    <glyph glyph-name="quotesinglbase" unicode="&#x201a;" 
d="M48 0v700h500v-700h-500zM72 24h452v652h-452v-652z" />
    <glyph glyph-name="quotedblleft" unicode="&#x201c;" 
d="M48 0v700h500v-700h-500zM72 24h452v652h-452v-652z" />
    <glyph glyph-name="quotedblright" unicode="&#x201d;" 
d="M48 0v700h500v-700h-500zM72 24h452v652h-452v-652z" />
    <glyph glyph-name="quotedblbase" unicode="&#x201e;" 
d="M48 0v700h500v-700h-500zM72 24h452v652h-452v-652z" />
    <glyph glyph-name="dagger" unicode="&#x2020;" 
d="M48 0v700h500v-700h-500zM72 24h452v652h-452v-652z" />
    <glyph glyph-name="daggerdbl" unicode="&#x2021;" 
d="M48 0v700h500v-700h-500zM72 24h452v652h-452v-652z" />
    <glyph glyph-name="bullet" unicode="&#x2022;" 
d="M48 0v700h500v-700h-500zM72 24h452v652h-452v-652z" />
    <glyph glyph-name="ellipsis" unicode="&#x2026;" 
d="M48 0v700h500v-700h-500zM72 24h452v652h-452v-652z" />
    <glyph glyph-name="perthousand" unicode="&#x2030;" 
d="M48 0v700h500v-700h-500zM72 24h452v652h-452v-652z" />
    <glyph glyph-name="guilsinglleft" unicode="&#x2039;" 
d="M48 0v700h500v-700h-500zM72 24h452v652h-452v-652z" />
    <glyph glyph-name="guilsinglright" unicode="&#x203a;" 
d="M48 0v700h500v-700h-500zM72 24h452v652h-452v-652z" />
    <glyph glyph-name="fraction" unicode="&#x2044;" 
d="M48 0v700h500v-700h-500zM72 24h452v652h-452v-652z" />
    <glyph glyph-name="dong" unicode="&#x20ab;" 
d="M48 0v700h500v-700h-500zM72 24h452v652h-452v-652z" />
    <glyph glyph-name="Euro" unicode="&#x20ac;" 
d="M48 0v700h500v-700h-500zM72 24h452v652h-452v-652z" />
    <glyph glyph-name="uni20BA" unicode="&#x20ba;" 
d="M48 0v700h500v-700h-500zM72 24h452v652h-452v-652z" />
    <glyph glyph-name="uni2103" unicode="&#x2103;" 
d="M48 0v700h500v-700h-500zM72 24h452v652h-452v-652z" />
    <glyph glyph-name="uni2109" unicode="&#x2109;" 
d="M48 0v700h500v-700h-500zM72 24h452v652h-452v-652z" />
    <glyph glyph-name="uni2116" unicode="&#x2116;" 
d="M48 0v700h500v-700h-500zM72 24h452v652h-452v-652z" />
    <glyph glyph-name="trademark" unicode="&#x2122;" 
d="M48 0v700h500v-700h-500zM72 24h452v652h-452v-652z" />
    <glyph glyph-name="Omega" unicode="&#x2126;" 
d="M48 0v700h500v-700h-500zM72 24h452v652h-452v-652z" />
    <glyph glyph-name="uni212A" unicode="&#x212a;" 
d="M48 0v700h500v-700h-500zM72 24h452v652h-452v-652z" />
    <glyph glyph-name="uni212B" unicode="&#x212b;" 
d="M48 0v700h500v-700h-500zM72 24h452v652h-452v-652z" />
    <glyph glyph-name="estimated" unicode="&#x212e;" 
d="M48 0v700h500v-700h-500zM72 24h452v652h-452v-652z" />
    <glyph glyph-name="uni2160" unicode="&#x2160;" 
d="M48 0v700h500v-700h-500zM72 24h452v652h-452v-652z" />
    <glyph glyph-name="uni2161" unicode="&#x2161;" 
d="M48 0v700h500v-700h-500zM72 24h452v652h-452v-652z" />
    <glyph glyph-name="uni2162" unicode="&#x2162;" 
d="M48 0v700h500v-700h-500zM72 24h452v652h-452v-652z" />
    <glyph glyph-name="uni2163" unicode="&#x2163;" 
d="M48 0v700h500v-700h-500zM72 24h452v652h-452v-652z" />
    <glyph glyph-name="uni2164" unicode="&#x2164;" 
d="M48 0v700h500v-700h-500zM72 24h452v652h-452v-652z" />
    <glyph glyph-name="uni2165" unicode="&#x2165;" 
d="M48 0v700h500v-700h-500zM72 24h452v652h-452v-652z" />
    <glyph glyph-name="uni2166" unicode="&#x2166;" 
d="M48 0v700h500v-700h-500zM72 24h452v652h-452v-652z" />
    <glyph glyph-name="uni2167" unicode="&#x2167;" 
d="M48 0v700h500v-700h-500zM72 24h452v652h-452v-652z" />
    <glyph glyph-name="uni2168" unicode="&#x2168;" 
d="M48 0v700h500v-700h-500zM72 24h452v652h-452v-652z" />
    <glyph glyph-name="uni2169" unicode="&#x2169;" 
d="M48 0v700h500v-700h-500zM72 24h452v652h-452v-652z" />
    <glyph glyph-name="uni216A" unicode="&#x216a;" 
d="M48 0v700h500v-700h-500zM72 24h452v652h-452v-652z" />
    <glyph glyph-name="uni216B" unicode="&#x216b;" 
d="M48 0v700h500v-700h-500zM72 24h452v652h-452v-652z" />
    <glyph glyph-name="uni216C" unicode="&#x216c;" 
d="M48 0v700h500v-700h-500zM72 24h452v652h-452v-652z" />
    <glyph glyph-name="uni216D" unicode="&#x216d;" 
d="M48 0v700h500v-700h-500zM72 24h452v652h-452v-652z" />
    <glyph glyph-name="uni216E" unicode="&#x216e;" 
d="M48 0v700h500v-700h-500zM72 24h452v652h-452v-652z" />
    <glyph glyph-name="uni216F" unicode="&#x216f;" 
d="M48 0v700h500v-700h-500zM72 24h452v652h-452v-652z" />
    <glyph glyph-name="uni2170" unicode="&#x2170;" 
d="M48 0v700h500v-700h-500zM72 24h452v652h-452v-652z" />
    <glyph glyph-name="uni2171" unicode="&#x2171;" 
d="M48 0v700h500v-700h-500zM72 24h452v652h-452v-652z" />
    <glyph glyph-name="uni2172" unicode="&#x2172;" 
d="M48 0v700h500v-700h-500zM72 24h452v652h-452v-652z" />
    <glyph glyph-name="uni2173" unicode="&#x2173;" 
d="M48 0v700h500v-700h-500zM72 24h452v652h-452v-652z" />
    <glyph glyph-name="uni2174" unicode="&#x2174;" 
d="M48 0v700h500v-700h-500zM72 24h452v652h-452v-652z" />
    <glyph glyph-name="uni2175" unicode="&#x2175;" 
d="M48 0v700h500v-700h-500zM72 24h452v652h-452v-652z" />
    <glyph glyph-name="uni2176" unicode="&#x2176;" 
d="M48 0v700h500v-700h-500zM72 24h452v652h-452v-652z" />
    <glyph glyph-name="uni2177" unicode="&#x2177;" 
d="M48 0v700h500v-700h-500zM72 24h452v652h-452v-652z" />
    <glyph glyph-name="uni2178" unicode="&#x2178;" 
d="M48 0v700h500v-700h-500zM72 24h452v652h-452v-652z" />
    <glyph glyph-name="uni2179" unicode="&#x2179;" 
d="M48 0v700h500v-700h-500zM72 24h452v652h-452v-652z" />
    <glyph glyph-name="uni217A" unicode="&#x217a;" 
d="M48 0v700h500v-700h-500zM72 24h452v652h-452v-652z" />
    <glyph glyph-name="uni217B" unicode="&#x217b;" 
d="M48 0v700h500v-700h-500zM72 24h452v652h-452v-652z" />
    <glyph glyph-name="uni217C" unicode="&#x217c;" 
d="M48 0v700h500v-700h-500zM72 24h452v652h-452v-652z" />
    <glyph glyph-name="uni217D" unicode="&#x217d;" 
d="M48 0v700h500v-700h-500zM72 24h452v652h-452v-652z" />
    <glyph glyph-name="uni217E" unicode="&#x217e;" 
d="M48 0v700h500v-700h-500zM72 24h452v652h-452v-652z" />
    <glyph glyph-name="uni217F" unicode="&#x217f;" 
d="M48 0v700h500v-700h-500zM72 24h452v652h-452v-652z" />
    <glyph glyph-name="Delta" unicode="&#x2206;" 
d="M48 0v700h500v-700h-500zM72 24h452v652h-452v-652z" />
    <glyph glyph-name="minus" unicode="&#x2212;" 
d="M48 0v700h500v-700h-500zM72 24h452v652h-452v-652z" />
    <glyph glyph-name="uni2215" unicode="&#x2215;" 
d="M48 0v700h500v-700h-500zM72 24h452v652h-452v-652z" />
    <glyph glyph-name="uni2219" unicode="&#x2219;" 
d="M48 0v700h500v-700h-500zM72 24h452v652h-452v-652z" />
    <glyph glyph-name="apple" unicode="&#xf8ff;" 
d="M48 0v700h500v-700h-500zM72 24h452v652h-452v-652z" />
    <glyph glyph-name="uniFE10" unicode="&#xfe10;" 
d="M48 0v700h500v-700h-500zM72 24h452v652h-452v-652z" />
    <glyph glyph-name="uniFE13" unicode="&#xfe13;" 
d="M48 0v700h500v-700h-500zM72 24h452v652h-452v-652z" />
    <glyph glyph-name="uniFE14" unicode="&#xfe14;" 
d="M48 0v700h500v-700h-500zM72 24h452v652h-452v-652z" />
    <glyph glyph-name="uniFE15" unicode="&#xfe15;" 
d="M48 0v700h500v-700h-500zM72 24h452v652h-452v-652z" />
    <glyph glyph-name="uniFE16" unicode="&#xfe16;" 
d="M48 0v700h500v-700h-500zM72 24h452v652h-452v-652z" />
    <glyph glyph-name="uniFE19" unicode="&#xfe19;" 
d="M48 0v700h500v-700h-500zM72 24h452v652h-452v-652z" />
    <glyph glyph-name="uniFE31" unicode="&#xfe31;" 
d="M48 0v700h500v-700h-500zM72 24h452v652h-452v-652z" />
    <glyph glyph-name="uniFE32" unicode="&#xfe32;" 
d="M48 0v700h500v-700h-500zM72 24h452v652h-452v-652z" />
    <glyph glyph-name="uniFE33" unicode="&#xfe33;" 
d="M48 0v700h500v-700h-500zM72 24h452v652h-452v-652z" />
    <glyph glyph-name="uniFE34" unicode="&#xfe34;" 
d="M48 0v700h500v-700h-500zM72 24h452v652h-452v-652z" />
    <glyph glyph-name="uniFE35" unicode="&#xfe35;" 
d="M48 0v700h500v-700h-500zM72 24h452v652h-452v-652z" />
    <glyph glyph-name="uniFE36" unicode="&#xfe36;" 
d="M48 0v700h500v-700h-500zM72 24h452v652h-452v-652z" />
    <glyph glyph-name="uniFE37" unicode="&#xfe37;" 
d="M48 0v700h500v-700h-500zM72 24h452v652h-452v-652z" />
    <glyph glyph-name="uniFE38" unicode="&#xfe38;" 
d="M48 0v700h500v-700h-500zM72 24h452v652h-452v-652z" />
    <glyph glyph-name="uniFE47" unicode="&#xfe47;" 
d="M48 0v700h500v-700h-500zM72 24h452v652h-452v-652z" />
    <glyph glyph-name="uniFE48" unicode="&#xfe48;" 
d="M48 0v700h500v-700h-500zM72 24h452v652h-452v-652z" />
    <glyph glyph-name="nonmarkingreturn" horiz-adv-x="236" 
 />
    <glyph glyph-name="middot.001" 
d="M48 0v700h500v-700h-500zM72 24h452v652h-452v-652z" />
    <glyph glyph-name="dong.alt" 
d="M48 0v700h500v-700h-500zM72 24h452v652h-452v-652z" />
    <glyph glyph-name="breve_acutecmb" 
d="M48 0v700h500v-700h-500zM72 24h452v652h-452v-652z" />
    <glyph glyph-name="breve_gravecmb" 
d="M48 0v700h500v-700h-500zM72 24h452v652h-452v-652z" />
    <glyph glyph-name="breve_hookabovecmb" 
d="M48 0v700h500v-700h-500zM72 24h452v652h-452v-652z" />
    <glyph glyph-name="breve_tildecmb" 
d="M48 0v700h500v-700h-500zM72 24h452v652h-452v-652z" />
    <glyph glyph-name="circumflex_acutecmb" 
d="M48 0v700h500v-700h-500zM72 24h452v652h-452v-652z" />
    <glyph glyph-name="circumflex_gravecmb" 
d="M48 0v700h500v-700h-500zM72 24h452v652h-452v-652z" />
    <glyph glyph-name="circumflex_hookabovecmb" 
d="M48 0v700h500v-700h-500zM72 24h452v652h-452v-652z" />
    <glyph glyph-name="circumflex_tildecmb" 
d="M48 0v700h500v-700h-500zM72 24h452v652h-452v-652z" />
    <glyph glyph-name="space_dotbelowcmb" 
d="M48 0v700h500v-700h-500zM72 24h452v652h-452v-652z" />
    <glyph glyph-name="space_hookabovecmb" 
d="M48 0v700h500v-700h-500zM72 24h452v652h-452v-652z" />
    <glyph glyph-name="space_horncmb" 
d="M48 0v700h500v-700h-500zM72 24h452v652h-452v-652z" />
    <glyph glyph-name="breve_acutecmb.cap" 
d="M48 0v700h500v-700h-500zM72 24h452v652h-452v-652z" />
    <glyph glyph-name="breve_gravecmb.cap" 
d="M48 0v700h500v-700h-500zM72 24h452v652h-452v-652z" />
    <glyph glyph-name="breve_hookabovecmb.cap" 
d="M48 0v700h500v-700h-500zM72 24h452v652h-452v-652z" />
    <glyph glyph-name="breve_tildecmb.cap" 
d="M48 0v700h500v-700h-500zM72 24h452v652h-452v-652z" />
    <glyph glyph-name="circumflex_acutecmb.cap" 
d="M48 0v700h500v-700h-500zM72 24h452v652h-452v-652z" />
    <glyph glyph-name="circumflex_gravecmb.cap" 
d="M48 0v700h500v-700h-500zM72 24h452v652h-452v-652z" />
    <glyph glyph-name="circumflex_hookabovecmb.cap" 
d="M48 0v700h500v-700h-500zM72 24h452v652h-452v-652z" />
    <glyph glyph-name="circumflex_tildecmb.cap" 
d="M48 0v700h500v-700h-500zM72 24h452v652h-452v-652z" />
    <glyph glyph-name="space_dotbelowcmb.cap" 
d="M48 0v700h500v-700h-500zM72 24h452v652h-452v-652z" />
    <glyph glyph-name="space_hookabovecmb.cap" 
d="M48 0v700h500v-700h-500zM72 24h452v652h-452v-652z" />
    <glyph glyph-name="space_horncmb.cap" 
d="M48 0v700h500v-700h-500zM72 24h452v652h-452v-652z" />
    <glyph glyph-name="Scommabelow" 
d="M48 0v700h500v-700h-500zM72 24h452v652h-452v-652z" />
    <glyph glyph-name="commabelow.001" 
d="M48 0v700h500v-700h-500zM72 24h452v652h-452v-652z" />
    <glyph glyph-name="commabelow.002" 
d="M48 0v700h500v-700h-500zM72 24h452v652h-452v-652z" />
    <glyph glyph-name="commabelow" 
d="M48 0v700h500v-700h-500zM72 24h452v652h-452v-652z" />
    <glyph glyph-name="macroncmb" 
d="M48 0v700h500v-700h-500zM72 24h452v652h-452v-652z" />
    <glyph glyph-name="Ecircumflexmacron" 
d="M48 0v700h500v-700h-500zM72 24h452v652h-452v-652z" />
    <glyph glyph-name="ecircumflexmacron" 
d="M48 0v700h500v-700h-500zM72 24h452v652h-452v-652z" />
    <glyph glyph-name="Ecircumflexcaron" 
d="M48 0v700h500v-700h-500zM72 24h452v652h-452v-652z" />
    <glyph glyph-name="ecircumflexcaron" 
d="M48 0v700h500v-700h-500zM72 24h452v652h-452v-652z" />
    <glyph glyph-name="idotaboveacute" 
d="M48 0v700h500v-700h-500zM72 24h452v652h-452v-652z" />
    <glyph glyph-name="xdotbelow" 
d="M48 0v700h500v-700h-500zM72 24h452v652h-452v-652z" />
    <glyph glyph-name="Mgrave" 
d="M48 0v700h500v-700h-500zM72 24h452v652h-452v-652z" />
    <glyph glyph-name="mgrave" 
d="M48 0v700h500v-700h-500zM72 24h452v652h-452v-652z" />
    <glyph glyph-name="Rbreve" 
d="M48 0v700h500v-700h-500zM72 24h452v652h-452v-652z" />
    <glyph glyph-name="rbreve" 
d="M48 0v700h500v-700h-500zM72 24h452v652h-452v-652z" />
    <glyph glyph-name="Uhornbreve" 
d="M48 0v700h500v-700h-500zM72 24h452v652h-452v-652z" />
    <glyph glyph-name="uhornbreve" 
d="M48 0v700h500v-700h-500zM72 24h452v652h-452v-652z" />
    <glyph glyph-name="alphabreveoxia" 
d="M48 0v700h500v-700h-500zM72 24h452v652h-452v-652z" />
    <glyph glyph-name="iotabreveoxia" 
d="M48 0v700h500v-700h-500zM72 24h452v652h-452v-652z" />
    <glyph glyph-name="upsilonbreveoxia" 
d="M48 0v700h500v-700h-500zM72 24h452v652h-452v-652z" />
    <glyph glyph-name="Alphabreveoxia" 
d="M48 0v700h500v-700h-500zM72 24h452v652h-452v-652z" />
    <glyph glyph-name="Iotabreveoxia" 
d="M48 0v700h500v-700h-500zM72 24h452v652h-452v-652z" />
    <glyph glyph-name="Upsilonbreveoxia" 
d="M48 0v700h500v-700h-500zM72 24h452v652h-452v-652z" />
    </font>
</defs>
</svg>
